<?xml version="1.0" encoding="UTF-8"?>
<svg width="39px" height="51px" viewBox="0 0 39 51" version="1.1" xmlns="http://www.w3.org/2000/svg" xmlns:xlink="http://www.w3.org/1999/xlink">
    <!-- Generator: Sketch 53.2 (72643) - https://sketchapp.com -->
    <title>business plan icon</title>
    <desc>Created with Sketch.</desc>
    <g id="Page-1" stroke="none" stroke-width="1" fill="none" fill-rule="evenodd">
        <g id="style-guide" transform="translate(-234.000000, -3572.000000)" fill="#324A5E">
            <g id="iconograpy" transform="translate(0.000000, 3421.000000)">
                <g id="homepage-icons" transform="translate(0.000000, 151.000000)">
                    <g id="business-plan-icon" transform="translate(234.619037, 0.163503)">
                        <g id="file">
                            <path d="M37.4547073,10.1095604 C37.4513904,9.80948026 37.3352996,9.51544852 37.114727,9.29477839 L28.1625629,0.342516735 C28.1621727,0.342126513 28.16188,0.342028958 28.1614898,0.341736292 C27.9500874,0.13052902 27.6580068,0 27.3355865,0 L2.46600342,0 C1.10832601,0 0.00390221287,1.10432624 0.00390221287,2.46200365 L0.00390221287,47.4862235 C0.00390221287,48.8438034 1.10822845,49.9482272 2.46590587,49.9482272 L34.9951426,49.9482272 C36.3527224,49.9482272 37.4571462,48.8439009 37.4571462,47.4862235 L37.4571462,10.1216573 C37.4573413,10.1173649 37.4550975,10.1137553 37.4547073,10.1095604 Z M28.5050797,3.99303687 L33.4642069,8.9521641 L28.6281945,8.9521641 C28.5603935,8.9521641 28.5050797,8.89685023 28.5050797,8.82904928 L28.5050797,3.99303687 Z M35.1182574,47.4863211 C35.1182574,47.554122 35.0630411,47.6093383 34.9952401,47.6093383 L2.46600342,47.6093383 C2.39820247,47.6093383 2.34298616,47.554122 2.34298616,47.4863211 L2.34298616,2.46200365 C2.34298616,2.39420271 2.39820247,2.33898639 2.46600342,2.33898639 L26.1660933,2.33898639 L26.1660933,8.82904928 C26.1660933,10.1866291 27.2706146,11.291248 28.628292,11.291248 L35.1183549,11.291248 L35.1183549,47.4863211 L35.1182574,47.4863211 Z" id="Shape" fill-rule="nonzero"></path>
                            <path d="M29.0800707,16.0004385 L8.3811728,16.0004385 C7.73535657,16.0004385 7.2116796,16.5240179 7.2116796,17.1699317 C7.2116796,17.815748 7.73535657,18.3394249 8.3811728,18.3394249 L29.0799732,18.3394249 C29.7257894,18.3394249 30.2494664,17.815748 30.2494664,17.1699317 C30.2495639,16.5240179 29.7257894,16.0004385 29.0800707,16.0004385 Z" id="Path" fill-rule="nonzero"></path>
                            <path d="M29.0800707,23.057493 L8.3811728,23.057493 C7.73535657,23.057493 7.2116796,23.5811699 7.2116796,24.2269861 C7.2116796,24.8728024 7.73535657,25.3964793 8.3811728,25.3964793 L29.0799732,25.3964793 C29.7257894,25.3964793 30.2494664,24.8728024 30.2494664,24.2269861 C30.2495639,23.5811699 29.7257894,23.057493 29.0800707,23.057493 Z" id="Path" fill-rule="nonzero"></path>
                            <path d="M29.0800707,30.1144498 L8.3811728,30.1144498 C7.73535657,30.1144498 7.2116796,30.6381268 7.2116796,31.283943 C7.2116796,31.9298568 7.73535657,32.4534362 8.3811728,32.4534362 L29.0799732,32.4534362 C29.7257894,32.4534362 30.2494664,31.9298568 30.2494664,31.283943 C30.2495639,30.6382243 29.7257894,30.1144498 29.0800707,30.1144498 Z" id="Path" fill-rule="nonzero"></path>
                            <path d="M18.7306218,37.1716018 L8.3811728,37.1716018 C7.73535657,37.1716018 7.2116796,37.6952788 7.2116796,38.341095 C7.2116796,38.9870088 7.73535657,39.5105882 8.3811728,39.5105882 L18.7306218,39.5105882 C19.376438,39.5105882 19.900115,38.9870088 19.900115,38.341095 C19.900115,37.6951812 19.376438,37.1716018 18.7306218,37.1716018 Z" id="Path" fill-rule="nonzero"></path>
                        </g>
                    </g>
                </g>
            </g>
        </g>
    </g>
</svg>