<?xml version="1.0" encoding="UTF-8"?>
<svg width="49px" height="48px" viewBox="0 0 49 48" version="1.1" xmlns="http://www.w3.org/2000/svg" xmlns:xlink="http://www.w3.org/1999/xlink">
    <!-- Generator: Sketch 53.2 (72643) - https://sketchapp.com -->
    <title>course icon</title>
    <desc>Created with Sketch.</desc>
    <g id="Page-1" stroke="none" stroke-width="1" fill="none" fill-rule="evenodd">
        <g id="style-guide" transform="translate(-70.000000, -3713.000000)" fill="#FFFFFF">
            <g id="iconograpy" transform="translate(0.000000, 3421.000000)">
                <g id="homepage-icons" transform="translate(0.000000, 151.000000)">
                    <g id="course-icon" transform="translate(70.000000, 139.000000)">
                        <g id="Shape">
                            <path d="M48.5648978,36.1754961 C48.5648978,34.051293 47.3929885,32.2402862 45.7614591,31.567611 L45.7614591,14.7091306 L48.6559599,13.3643247 L24.6413275,2.20697648 L0.688902071,13.3643247 L12.026509,18.6455385 L12.026509,26.3993265 C12.026509,28.7895723 13.4681383,30.9438318 16.0857991,32.4652736 C18.3946731,33.8072481 21.433262,34.5462434 24.6419833,34.5462434 C27.8507046,34.5462434 30.8893871,33.8072481 33.1981675,32.4652736 C35.8158283,30.9438318 37.2574576,28.7896812 37.2574576,26.3993265 L37.2574576,18.6601311 L42.957833,16.0116834 L42.957833,31.5677199 C41.3263036,32.2402862 40.1543942,34.0514019 40.1543942,36.175605 C40.1543942,38.1188164 41.1349982,39.8005589 42.5512388,40.5877969 L40.2263445,48.6951832 L42.8859764,49.7257037 L44.359646,44.5868222 L45.8333157,49.7257037 L48.4929475,48.6951832 L46.1680533,40.5877969 C47.5841065,39.8003411 48.5648978,38.1187075 48.5648978,36.1754961 Z M34.4541125,26.3992176 C34.4541125,28.7065905 30.2579482,31.2873024 24.642077,31.2873024 C19.0262057,31.2873024 14.8300414,28.7065905 14.8300414,26.3992176 L14.8300414,19.9513582 L24.6414212,24.5216729 L34.4542062,19.962466 L34.4542062,26.3992176 L34.4541125,26.3992176 Z M24.6427328,21.0117174 L8.22541554,13.3643247 L24.6427328,5.71693197 L41.1023957,13.3643247 L24.6427328,21.0117174 Z M44.359646,37.8048577 C43.5867424,37.8048577 42.9579267,37.073921 42.9579267,36.1754961 C42.9579267,35.2770712 43.5867424,34.5461345 44.359646,34.5461345 C45.1325497,34.5461345 45.7613654,35.2770712 45.7613654,36.1754961 C45.7613654,37.073921 45.1325497,37.8048577 44.359646,37.8048577 Z" fill-rule="nonzero"></path>
                        </g>
                    </g>
                </g>
            </g>
        </g>
    </g>
</svg>