<?xml version="1.0" encoding="UTF-8"?>
<svg width="49px" height="49px" viewBox="0 0 49 49" version="1.1" xmlns="http://www.w3.org/2000/svg" xmlns:xlink="http://www.w3.org/1999/xlink">
    <!-- Generator: Sketch 53.2 (72643) - https://sketchapp.com -->
    <title>expert icon</title>
    <desc>Created with Sketch.</desc>
    <g id="Page-1" stroke="none" stroke-width="1" fill="none" fill-rule="evenodd">
        <g id="style-guide" transform="translate(-383.000000, -3572.000000)" fill="#324A5E">
            <g id="iconograpy" transform="translate(0.000000, 3421.000000)">
                <g id="homepage-icons" transform="translate(0.000000, 151.000000)">
                    <g id="expert-icon" transform="translate(383.238087, 0.163503)">
                        <g id="wrench">
                            <path d="M46.4722297,4.39060287 L43.5741737,1.49254688 C41.6842109,-0.397415922 38.4996085,-0.507343483 36.4749444,1.24763543 L31.3816341,5.66263525 C31.31645,5.71915328 31.2604971,5.78565616 31.2160363,5.85960058 L26.2579924,14.1183914 L23.0745204,15.1795173 C22.8054946,15.2691926 22.6021239,15.4917794 22.537034,15.7676816 C22.4719441,16.0435837 22.554272,16.3335212 22.7547226,16.534066 L31.4307106,25.2099598 C31.5859468,25.3651018 31.7947809,25.4495021 32.0091726,25.4495021 C32.0718134,25.4495021 32.134831,25.4423431 32.197095,25.4276484 C32.4729972,25.3625585 32.695584,25.1591878 32.7852593,24.890162 L33.8466678,21.7056538 L42.2268782,16.6454065 C42.3006342,16.6007573 42.3669487,16.5448986 42.4232783,16.4795261 L46.7337198,11.4843688 C48.4789023,9.46215377 48.361439,6.2799063 46.4722297,4.39060287 Z M45.4952214,10.4155187 L41.2698396,15.3120521 L32.7431534,20.4607501 C32.5767078,20.561258 32.4515204,20.7178129 32.3900099,20.9024385 L31.6517903,23.1171915 L29.6967376,21.1621388 C29.6963608,21.161762 29.6960782,21.161291 29.6957014,21.1609142 L26.8035798,18.268981 C26.8032972,18.2686984 26.8029204,18.26851 26.8026378,18.2682275 L24.8473967,16.3129863 L27.0621498,15.5747667 C27.2473405,15.5129737 27.4043664,15.3871269 27.5047801,15.2198335 L32.5516515,6.81343647 L37.5465262,2.48377886 C38.9362103,1.27900294 41.1211972,1.35322994 42.4172497,2.64947088 L45.3153999,5.54752687 C46.6121118,6.8440504 46.6927442,9.02790693 45.4952214,10.4155187 Z" id="Shape" fill-rule="nonzero"></path>
                            <path d="M44.1533893,32.8673046 C41.75175,30.4657595 38.2170184,29.6309882 35.0144245,30.6692244 L17.6302331,13.2850331 C18.6683751,10.0824391 17.8336038,6.54761335 15.4321529,4.14597402 C12.9020292,1.61603877 9.11428532,0.824598004 5.78217088,2.1305412 C5.52529645,2.23123748 5.33633785,2.45467208 5.27991402,2.72482825 C5.22349019,2.99489021 5.30704267,3.27531382 5.50221826,3.47048941 L10.7057387,8.6739157 L7.23524934,12.1443109 L2.03182305,6.94079042 C1.83655327,6.74570903 1.55650644,6.66234494 1.28616189,6.71848618 C1.01600572,6.77491001 0.792476926,6.96377442 0.691874839,7.22074304 C-0.613879963,10.5526691 0.177278209,14.3405072 2.70730766,16.8707251 C5.10894699,19.2722702 8.64367855,20.1072298 11.8462725,19.0688053 L18.3465991,25.5691319 L10.2516164,33.664303 L5.1030126,36.5429545 C4.9598336,36.6230217 4.84397164,36.744347 4.7705924,36.8911055 L2.457027,41.5182363 C2.2995301,41.8331359 2.36122894,42.2135023 2.61019085,42.4625584 L5.50212406,45.3545858 C5.65914998,45.5116117 5.86854926,45.594128 6.08077445,45.594128 C6.20501991,45.594128 6.33020734,45.565869 6.44644608,45.5077496 L11.0735769,43.1941842 C11.2203354,43.120805 11.3416607,43.004943 11.4217279,42.861764 L14.3003794,37.713066 L22.3955505,29.6181775 L29.230558,36.453185 C28.1923219,39.655779 29.0271873,43.1906047 31.4287325,45.5922441 C33.149047,47.3124644 35.4505552,48.22881 37.7951113,48.22881 C38.89872,48.2287158 40.0121251,48.0256277 41.0786203,47.6077711 C41.3354947,47.5070748 41.5244533,47.2836402 41.5808771,47.013484 C41.637301,46.7434221 41.5537485,46.4629985 41.3585729,46.2678229 L36.1550524,41.0643024 L39.6254476,37.5940014 L44.8288739,42.7974277 C45.0240495,42.9926032 45.3042847,43.0763441 45.5745351,43.0197319 C45.8446912,42.9633081 46.06822,42.7744437 46.1688221,42.517475 C47.4746711,39.1853606 46.683513,35.3975225 44.1533893,32.8673046 Z M13.0631998,36.6363976 C13.0099787,36.6896188 12.9644817,36.7499046 12.9277449,36.815654 L10.1166325,41.8434976 L6.24213342,43.7807471 L4.18393529,41.722549 L6.12109064,37.8479557 L11.1488401,35.0369375 C11.2145894,35.0002007 11.2748753,34.9547037 11.3280964,34.9014826 L19.5033347,26.7261501 L21.2385323,28.4613477 L13.0631998,36.6363976 Z M45.0128401,40.6675458 L40.2039096,35.8586154 C39.8843944,35.5392885 39.3665951,35.5392885 39.0470798,35.8586154 L34.419949,40.4857462 C34.2665968,40.6391926 34.1804068,40.847179 34.1804068,41.0642082 C34.1804068,41.2812374 34.2665968,41.4891295 34.419949,41.6426702 L39.2289737,46.4516948 C36.8444781,46.9255043 34.3438381,46.1936901 32.5855623,44.4354143 C30.5154012,42.3652532 29.8679872,39.2657104 30.9364605,36.5391866 C31.0550541,36.2364384 30.983182,35.8922436 30.7533421,35.6623094 L12.6371481,17.5462097 C12.4807816,17.3899373 12.2715707,17.3066674 12.0584977,17.3066674 C11.9582724,17.3066674 11.8571051,17.32513 11.7602709,17.3630913 C9.03384133,18.4316587 5.93429857,17.7840564 3.86404326,15.7140836 C2.10567327,13.9556195 1.37376483,11.4548852 1.84785687,9.07057804 L6.65678734,13.8796027 C6.97630258,14.1990238 7.4941019,14.1988354 7.81361714,13.8796027 L12.440748,9.25247189 C12.760169,8.93295665 12.760169,8.41515733 12.440748,8.09564209 L7.63181749,3.28661743 C10.016313,2.81186601 12.5167647,3.54433963 14.2752289,5.30289802 C16.34539,7.37305912 16.992804,10.4726019 15.9243307,13.1991257 C15.805737,13.5018739 15.8776091,13.8460687 16.1074491,14.0760028 L34.2234547,32.1919142 C34.453483,32.4217542 34.7978662,32.4936263 35.1003319,32.3750326 C37.8269498,31.3068419 40.9263042,31.9539733 42.9965595,34.0240402 C44.7551179,35.7825044 45.4868379,38.2833329 45.0128401,40.6675458 Z" id="Shape" fill-rule="nonzero"></path>
                        </g>
                    </g>
                </g>
            </g>
        </g>
    </g>
</svg>