<?xml version="1.0" encoding="UTF-8"?>
<svg width="57px" height="49px" viewBox="0 0 57 49" version="1.1" xmlns="http://www.w3.org/2000/svg" xmlns:xlink="http://www.w3.org/1999/xlink">
    <!-- Generator: Sketch 53.2 (72643) - https://sketchapp.com -->
    <title>gears</title>
    <desc>Created with Sketch.</desc>
    <g id="Page-1" stroke="none" stroke-width="1" fill="none" fill-rule="evenodd">
        <g id="style-guide" transform="translate(-229.000000, -3711.000000)" fill="#F7FFFF">
            <g id="iconograpy" transform="translate(0.000000, 3421.000000)">
                <g id="homepage-icons" transform="translate(0.000000, 151.000000)">
                    <g id="gears" transform="translate(229.217722, 139.000000)">
                        <g transform="translate(0.000000, -0.000000)" id="Shape">
                            <path d="M28.8632708,29.3677369 L25.984116,29.3677369 C25.8026319,28.7951178 25.5800353,28.2375994 25.3181193,27.6999923 L27.3673398,25.5618582 C27.7646325,25.144922 27.7646325,24.4714098 27.3673398,24.0544736 L23.6787429,20.2058322 C23.2791449,19.7913015 22.6336405,19.7913015 22.2340425,20.2058322 L20.184822,22.3439663 C19.6787926,22.0827131 19.1547044,21.8611489 18.6171683,21.6811447 L18.6171683,18.6770663 C18.6171683,18.086674 18.158399,17.6079993 17.592558,17.6079993 L12.3465535,17.6079993 C11.7807125,17.6079993 11.3219433,18.086674 11.3219433,18.6770663 L11.3219433,21.7987421 C10.8054116,21.9820871 10.3020719,22.2035176 9.81576621,22.4615637 L7.68457689,20.2487285 C7.28497889,19.8341978 6.63947443,19.8341978 6.23987644,20.2487285 L2.56152563,24.0865456 C2.164233,24.5034818 2.164233,25.176994 2.56152563,25.5939302 L4.71320716,27.838971 C4.47472912,28.3331472 4.26929477,28.843894 4.09844101,29.3677369 L1.02461025,29.3677369 C0.45876924,29.3677369 0,29.8464117 0,30.4368039 L0,35.8783553 C0,36.4687476 0.45876924,36.9474223 1.02461025,36.9474223 L4.09844101,36.9474223 C4.26494017,37.4782141 4.46691647,37.9963107 4.70296106,38.4975696 L2.56152563,40.7639917 C2.164233,41.1809279 2.164233,41.8544401 2.56152563,42.2713763 L6.25012254,46.1200177 C6.64972054,46.5345484 7.29522499,46.5345484 7.69482299,46.1200177 L9.81576621,43.9070489 C10.3021999,44.1648277 10.8055397,44.3863918 11.3219433,44.5698705 L11.3219433,47.6915463 C11.3219433,48.2819385 11.7807125,48.7606133 12.3465535,48.7606133 L17.5618197,48.7606133 C18.1276607,48.7606133 18.58643,48.2819385 18.58643,47.6915463 L18.58643,44.6340145 C19.1239661,44.453743 19.6479262,44.2323125 20.1540837,43.9711929 L22.2033042,46.109327 C22.6029022,46.5238578 23.2484066,46.5238578 23.6480046,46.109327 L27.3366015,42.2606856 C27.7338942,41.8437495 27.7338942,41.1702372 27.3366015,40.7533011 L25.287381,38.6151669 C25.5496812,38.0776935 25.7722778,37.520175 25.9533777,36.9474223 L28.8325325,36.9474223 C29.3983735,36.9474223 29.8571427,36.4687476 29.8571427,35.8783553 L29.8571427,30.4368039 C29.8573989,29.8587059 29.4170726,29.3851092 28.8632708,29.3677369 Z M27.8386605,34.8092882 L25.2156583,34.8092882 C24.7363969,34.7935195 24.3106713,35.1265339 24.1910481,35.6110885 C23.9730622,36.5347624 23.6278966,37.4206181 23.1664378,38.2409935 C22.9252702,38.6611368 22.9886679,39.1986103 23.3201293,39.5452553 L25.1746739,41.4802667 L22.9307774,43.8108328 L21.0557407,41.8544401 C20.7276092,41.5103342 20.218506,41.4401766 19.8159623,41.6833894 C19.0327758,42.1636678 18.1873443,42.5238097 17.3056672,42.7524565 C16.8372922,42.8731274 16.512875,43.3182602 16.5269634,43.8215235 L16.5269634,46.6224792 L13.3711638,46.6224792 L13.3711638,43.7787608 C13.3862768,43.2787047 13.0671107,42.8345073 12.6027061,42.7096938 C11.7420335,42.4762363 10.9174784,42.1162279 10.1538876,41.6406267 C9.75121577,41.3889951 9.23609296,41.4551436 8.90386309,41.8009868 L6.95710361,43.8322142 L4.72345326,41.5230293 L6.65996664,39.4704206 C6.98976306,39.1280519 7.05700311,38.5968592 6.82390428,38.1768494 C6.37051424,37.386408 6.02560482,36.5335597 5.79929403,35.6431605 C5.67967078,35.1586059 5.25394522,34.8255915 4.77468377,34.8413602 L2.06971271,34.8413602 L2.06971271,31.505871 L4.8668987,31.505871 C5.34616014,31.5216397 5.7718857,31.1886254 5.89150895,30.7040707 C6.11846012,29.8139388 6.46324147,28.9610905 6.9161192,28.1703818 C7.11604628,27.7346033 7.01102373,27.2131659 6.65996664,26.898192 L4.72345326,24.8455832 L6.96734971,22.515017 L8.91410919,24.5462445 C9.24633907,24.8920877 9.76146187,24.9582362 10.1641337,24.7066045 C10.9282368,24.2320724 11.7526638,23.872064 12.6129522,23.6375375 C13.0732584,23.5085812 13.3874295,23.065453 13.3711638,22.5684704 L13.3711638,19.7461334 L16.5372095,19.7461334 L16.5372095,22.5470891 C16.5231211,23.0503524 16.8475383,23.4954852 17.3159133,23.6161561 C18.1975904,23.8446692 19.0430219,24.2048112 19.8262084,24.6852232 C20.2287521,24.9284359 20.7378553,24.8582784 21.0659868,24.5141724 L22.9410235,22.5470891 L25.18492,24.8776552 L23.3201293,26.8233573 C22.9886679,27.1700023 22.9252702,27.7074757 23.1664378,28.1276191 C23.6284089,28.9477272 23.9735745,29.8337165 24.1910481,30.7575241 C24.3106713,31.2420787 24.7363969,31.5750931 25.2156583,31.5593244 L27.8386605,31.5593244 L27.8386605,34.8092882 Z" fill-rule="nonzero"></path>
                            <path d="M15.6071429,27.0892296 C12.2343096,27.0892296 9.5,29.8181369 9.5,33.1843063 C9.5,36.5504756 12.2343096,39.279383 15.6071429,39.279383 C18.9799761,39.279383 21.7142857,36.5504756 21.7142857,33.1843063 C21.7082876,29.8204498 18.9775223,27.0952159 15.6071429,27.0892296 Z M15.6071429,37.0697816 L15.6071429,37.1024338 C13.4388345,37.1024338 11.6811224,35.3481946 11.6811224,33.1841702 C11.6811224,31.0201459 13.4388345,29.2659067 15.6071429,29.2659067 C17.7754512,29.2659067 19.5331633,31.0201459 19.5331633,33.1841702 C19.515169,35.3354058 17.7627734,37.0699177 15.6071429,37.0697816 Z" fill-rule="nonzero"></path>
                            <path d="M56.980367,14.9400923 C56.9770763,14.9233938 56.9735223,14.9068268 56.9694418,14.8903913 L55.8321702,9.70465573 C55.7063332,9.13874788 55.1458583,8.78124243 54.5790653,8.905232 L51.6937651,9.536356 C51.3803572,9.02632892 51.0283822,8.54102086 50.6407358,8.0847708 L52.2834615,5.58131228 C52.5966061,5.09311157 52.4553685,4.44397424 51.9675527,4.12972708 L47.4395267,1.21603796 C46.9507895,0.903237126 46.3009388,1.04431964 45.9863463,1.53159996 L44.3646812,4.05609595 C43.8006524,3.91527641 43.226883,3.81679477 42.6482434,3.76157142 L42.0058956,0.816326092 C41.8755832,0.250155272 41.3103697,-0.103274167 40.7437083,0.0270266419 C40.7290975,0.0303137461 40.7146184,0.0339953027 40.7001392,0.0379398277 L35.4349928,1.18448176 C34.8685946,1.31018062 34.5105647,1.8700402 34.6346905,2.43621102 L35.371811,5.42353128 C34.8896552,5.7131909 34.4286917,6.03651046 33.9923426,6.39125474 L31.3913603,4.7291634 C30.9026231,4.41636257 30.2527724,4.55744508 29.9381799,5.0447254 L27.0107584,9.55739347 C26.6976138,10.0455942 26.8388514,10.6947315 27.3266672,11.0089787 L29.9592405,12.691976 C29.826822,13.2246183 29.7317861,13.7659387 29.6749225,14.3118609 L26.6106073,14.9850599 C26.0440775,15.1107587 25.6861792,15.6706183 25.810305,16.2367891 L26.958107,21.4961558 C27.083944,22.0620636 27.6444188,22.4195691 28.2112118,22.2955795 L31.2755271,21.6328993 C31.5776148,22.0974329 31.9119516,22.5402715 32.2759049,22.9582597 L30.591058,25.587943 C30.2779134,26.0761437 30.419151,26.7252811 30.9069668,27.0395282 L35.4139322,29.9321799 C35.9026694,30.2449807 36.5525201,30.1038982 36.8671126,29.6166179 L38.5308989,27.0184908 C39.0739988,27.1595733 39.6264443,27.2614735 40.1841549,27.323534 L40.8370331,30.321373 C40.9429941,30.8148331 41.3848715,31.1635291 41.8900623,31.1523529 L42.1111985,31.1523529 L47.376345,30.0163297 C47.9104941,29.8447429 48.2161358,29.2850148 48.0713443,28.743563 L47.4289964,25.7983177 C47.9294486,25.5073432 48.4080504,25.1803421 48.8611163,24.8200755 L51.4199774,26.4609979 C51.9087147,26.7737987 52.5585654,26.6327162 52.8731579,26.1454359 L55.7689884,21.6328993 C56.0925317,21.1502209 55.9631407,20.4968761 55.4799319,20.173688 C55.4676904,20.1654045 55.4551857,20.1575155 55.4425493,20.1497579 L52.9468699,18.5509104 C53.0962685,17.9776395 53.2018346,17.3939813 53.2627787,16.8048007 L56.148079,16.1736767 C56.7189525,16.0625726 57.0915932,15.5103391 56.980367,14.9400923 Z M52.0623253,14.9640224 C51.5949119,15.0636874 51.2533356,15.4653715 51.2304322,15.9422646 C51.1980515,16.8840857 51.027724,17.8161769 50.7249781,18.7086914 C50.5717624,19.1661249 50.7497243,19.6691833 51.1567201,19.9288645 L53.4312634,21.3804497 L51.6727045,24.1153204 L49.3771006,22.6426977 C48.9726057,22.3840683 48.4441167,22.4316656 48.0924049,22.7584038 C47.4064879,23.3882129 46.6334328,23.9161218 45.796801,24.325695 C45.3607153,24.5376475 45.1258897,25.0196685 45.2281652,25.4932744 L45.8178616,28.1860701 L42.6587737,28.8803065 L42.058547,26.1454359 C41.9587725,25.6785356 41.5566469,25.3373342 41.0792298,25.314456 C40.1646738,25.2740903 39.2606482,25.1040813 38.3940051,24.8095568 C38.2852798,24.7737931 38.171421,24.7560427 38.0570357,24.7569631 C37.6990058,24.7576205 37.3658536,24.9398576 37.1724911,25.2408248 L35.6455986,27.6180585 L32.9077225,25.8614301 L34.3819635,23.4421214 C34.6408771,23.0380706 34.5932275,22.5101617 34.2661303,22.158836 C33.6528723,21.494052 33.1353084,20.7470905 32.7287075,19.9393832 C32.5130997,19.5078522 32.0313388,19.2781494 31.559845,19.3818904 L28.7587871,19.9919769 L28.0637877,16.8363569 L30.8648456,16.2262704 C31.3359446,16.1255535 31.6784424,15.718347 31.6967388,15.2375095 C31.7633429,14.3242204 31.9582849,13.4247373 32.2759049,12.5657512 C32.4237239,12.1113419 32.2464201,11.6145947 31.8441629,11.3560969 L29.4432561,9.8203618 L31.201815,7.08549114 L33.5184795,8.57915127 C33.9253437,8.84330296 34.4602825,8.79544272 34.8137055,8.4634452 C35.4794833,7.8348194 36.2310829,7.30362337 37.0461276,6.88563521 C37.469577,6.66802891 37.6941355,6.19363404 37.5937028,5.72857454 L36.9934761,2.99370389 L40.152564,2.29946749 L40.7422604,4.99226321 C40.8482215,5.48572329 41.2900989,5.8344193 41.7952897,5.82324314 C42.726036,5.84796217 43.6482264,6.00732098 44.5331659,6.29658614 C44.9880745,6.44424286 45.4853676,6.26713369 45.7441496,5.86531808 L47.2183906,3.57223422 L49.9562667,5.32886268 L48.492556,7.60090907 C48.2308782,8.00969335 48.2831348,8.54417648 48.6189195,8.89471327 C49.2474464,9.58303288 49.7723815,10.3590524 50.1774029,11.1983159 C50.3930106,11.6298469 50.8747715,11.8596812 51.3462654,11.7558087 L53.9788386,11.1877971 L54.673838,14.3434171 L52.0623253,14.9640224 Z" fill-rule="nonzero"></path>
                            <path d="M47.3605442,14.2811149 C46.7577365,11.4757515 44.2700302,9.4740391 41.3951747,9.48124979 C38.0223417,9.48002533 35.287078,12.2078398 35.2857148,15.5740037 C35.2843516,18.9401675 38.0177068,21.6700228 41.3905398,21.6713833 C44.7633728,21.6726077 47.4986365,18.9447933 47.4999997,15.5786294 C47.500136,15.1423151 47.4533782,14.7073614 47.3605442,14.2811149 Z M42.2130956,19.4075013 L42.2240012,19.4075013 C40.1103573,19.8349723 38.0387001,18.5097035 37.5454938,16.4143882 C37.0860949,14.2992096 38.4269399,12.2116492 40.544537,11.7451317 C40.8205853,11.68663 41.1020864,11.6575151 41.3842691,11.6580593 C43.5525773,11.6549302 45.3128793,13.4065816 45.3160147,15.5706024 C45.3187411,17.4200742 44.0251992,19.0196211 42.2130956,19.4075013 Z" fill-rule="nonzero"></path>
                        </g>
                    </g>
                </g>
            </g>
        </g>
    </g>
</svg>