<?xml version="1.0" encoding="UTF-8"?>
<svg width="76px" height="50px" viewBox="0 0 76 50" version="1.1" xmlns="http://www.w3.org/2000/svg" xmlns:xlink="http://www.w3.org/1999/xlink">
    <!-- Generator: Sketch 53.2 (72643) - https://sketchapp.com -->
    <title>hand icon</title>
    <desc>Created with Sketch.</desc>
    <g id="Page-1" stroke="none" stroke-width="1" fill="none" fill-rule="evenodd">
        <g id="style-guide" transform="translate(-541.000000, -3572.000000)" fill="#324A5E">
            <g id="iconograpy" transform="translate(0.000000, 3421.000000)">
                <g id="homepage-icons" transform="translate(0.000000, 151.000000)">
                    <g id="hand-icon" transform="translate(541.857137, 0.163503)">
                        <g id="Shape">
                            <path d="M74.3589744,12.6889523 C74.3572316,11.5600611 74.0252304,10.4151943 73.2910807,9.47147436 L67.3992939,1.9327524 C66.4124399,0.6796875 64.9108824,0.0416816907 63.4103415,0.0392127404 C62.5173077,0.0392127404 61.6080078,0.268098958 60.8045823,0.769150641 L55.0597706,4.34331931 C54.455604,4.72862079 53.4198067,4.99308894 52.4193009,4.98626302 C51.6420172,4.98960337 50.8908754,4.8340595 50.3949069,4.58905248 L44.7691857,1.86405749 C43.8617738,1.42719852 42.8502304,1.248127 41.8330228,1.24638421 C40.3721304,1.25321014 38.8926482,1.61222456 37.703776,2.4361278 L37.0473257,2.89665966 C36.5226012,2.63480569 35.7207732,2.23585236 34.81249,1.78388922 C33.7232472,1.24986979 32.4424429,1.03449018 31.1487129,1.03027845 C29.980028,1.03361879 28.8116336,1.21370693 27.7857121,1.64708033 L23.9539012,3.28210637 C23.3302734,3.55252905 22.3383363,3.72913161 21.3530799,3.72477464 C20.3678235,3.72898638 19.3776292,3.55238381 18.7540014,3.28210637 L14.9187049,1.64620893 C14.2191206,1.34790164 13.4713191,1.22038762 12.7301983,1.21951623 C11.8768129,1.22038762 11.0285106,1.38856671 10.2400441,1.70793269 C9.45259415,2.02904147 8.72163962,2.50307993 8.13954828,3.15357572 L1.15677584,10.973758 C0.382832532,11.8380359 -0.00159755609,12.9264073 1.28991852e-15,13.9977865 C-0.00159755609,15.2753956 0.545057091,16.5570713 1.59944411,17.4553335 L8.11311599,23.012505 L5.02315204,26.2359375 C4.17136418,27.1249048 3.74728566,28.277469 3.74728566,29.4171074 C3.7456881,30.6296524 4.22727865,31.8539613 5.18116486,32.7554187 L5.80798778,33.3510166 C6.39864784,33.9113231 7.10839844,34.2677234 7.85111679,34.4578325 C7.47859575,35.1430389 7.27497997,35.8943259 7.27657752,36.6470653 C7.27497997,37.8604818 7.75657051,39.0839193 8.70871394,39.9863932 L8.70711639,39.9855218 L9.33582732,40.583734 C10.2307492,41.4320363 11.3908654,41.8545172 12.5338442,41.8537911 C13.1481771,41.8546625 13.7632362,41.7312149 14.341261,41.4895483 C14.5441506,42.3125801 14.963146,43.0949469 15.6222105,43.7201723 L16.2509215,44.3183844 C17.1458433,45.1666867 18.3040715,45.5891677 19.4489383,45.5884415 C20.3438602,45.5893129 21.2428486,45.3255709 22.0167919,44.8136268 C22.2432091,45.5419671 22.6311248,46.2322566 23.2216396,46.7932893 L23.8503506,47.3915014 C24.7433844,48.2398037 25.9035006,48.6622847 27.0467698,48.6615585 C28.2642528,48.6624299 29.4937901,48.1841797 30.4019281,47.2361028 L33.1328776,44.3843199 L36.843129,47.8181941 C37.731225,48.6419521 38.8711538,49.0517979 39.9964143,49.0493289 C41.2326322,49.0519431 42.4797426,48.5567007 43.3897686,47.582482 L43.9820262,46.9479617 C44.4932442,46.3988381 44.8269882,45.7489233 45.0205829,45.0705429 L46.4578025,46.3970954 C47.347496,47.217513 48.4858273,47.625616 49.6094902,47.6247446 C50.8473057,47.625616 52.0979016,47.1303736 53.0087991,46.1554287 L53.5977163,45.5216346 C54.2778395,44.7950371 54.6606721,43.8950321 54.7788912,42.9758564 C55.1582382,43.0730168 55.5426683,43.1389523 55.9304387,43.1389523 C57.1682542,43.1389523 58.4153646,42.6445813 59.3271334,41.6705078 L59.9177935,41.0367137 C60.7432943,40.1519581 61.1540114,39.0172576 61.1522686,37.8985327 C61.1522686,37.5512821 61.1024539,37.2057742 61.0254808,36.8643329 C62.0521284,36.7282502 63.0475511,36.2703325 63.8045022,35.4574669 L64.3967598,34.8229467 C65.2222606,33.9381911 65.631235,32.8034906 65.631235,31.6838942 C65.6328325,30.4520333 65.1361378,29.2089894 64.1559645,28.3033203 L63.0482772,27.2801583 L73.0457833,16.2265224 C73.9433193,15.2313902 74.3573768,13.9504407 74.3589744,12.6889523 Z M9.0064403,32.1057943 C8.47677784,32.1041967 7.95873397,31.9148137 7.55397135,31.531255 L6.92613181,30.9356571 C6.49174179,30.5249399 6.27723357,29.9784305 6.27549079,29.4172526 C6.27723357,28.8909305 6.46559996,28.3770984 6.85351563,27.9723357 L13.1821615,21.3681841 C13.5944762,20.9380058 14.1446164,20.7226262 14.7089894,20.7219 C15.2370543,20.7227714 15.7533554,20.9128806 16.1614583,21.2973107 L16.7866837,21.89378 C16.7866837,21.89378 17.4339844,22.8510066 17.4355819,23.4129107 C17.4339844,23.8336488 17.3071965,24.2434946 17.0613181,24.5984425 C17.0402594,24.6195012 10.2307492,31.716281 10.2307492,31.716281 C9.86912059,31.9721805 9.44155649,32.1039063 9.0064403,32.1057943 Z M14.0608173,38.693099 C13.649374,39.1215345 13.1001052,39.3360427 12.5357322,39.3377855 C12.0060697,39.3369141 11.4896234,39.1468049 11.0832632,38.7632462 L10.4545523,38.1657602 L10.4529547,38.1648888 C10.0220503,37.7559145 9.80565405,37.2076623 9.80565405,36.6464844 C9.80565405,36.1201623 9.99576322,35.6063301 10.3817909,35.2015675 C10.3817909,35.2015675 18.8177584,26.4200921 18.888777,26.3354217 C19.2919421,25.9476512 19.8114383,25.7473758 20.3479267,25.7465044 C20.8775891,25.7473758 21.3940355,25.9366136 21.8003956,26.3210437 L22.4291066,26.9192558 C22.8616086,27.3282302 23.0764073,27.8757562 23.0780048,28.4376603 C23.076262,28.9639824 22.8862981,29.4785407 22.49998,29.8833033 L14.0608173,38.693099 Z M20.9748948,42.4267328 C20.5643229,42.8561849 20.0151993,43.0709836 19.4506811,43.0725811 C18.9210186,43.0717097 18.4045723,42.8816006 17.9982121,42.4971705 L17.3677584,41.8996845 C16.9352564,41.4898387 16.7188602,40.9424579 16.7188602,40.38128 C16.7188602,39.9115986 16.8786158,39.4560046 17.1843299,39.0766577 L23.0592698,32.9448017 C23.455609,32.5873848 23.9523037,32.3990184 24.4670072,32.3990184 C24.9966697,32.3998898 25.513116,32.5891276 25.9194762,32.9735577 L26.5499299,33.5717698 C26.9808343,33.9807442 27.1972306,34.5282702 27.1988281,35.0893029 C27.1970853,35.6166416 27.0053786,36.1311999 26.6208033,36.5349459 L20.9748948,42.4267328 Z M32.1377454,41.7795773 L28.5728716,45.5001402 C28.1621544,45.9293019 27.6121595,46.1441006 27.0477865,46.1456981 C26.518124,46.1448267 26.0016777,45.9547175 25.5953175,45.5702875 L24.9666066,44.9728015 C24.5357021,44.5638271 24.3193059,44.0155749 24.3177083,43.454397 C24.3193059,42.9270583 24.5094151,42.4125 24.8957332,42.0094802 L28.4590094,38.2890625 C28.8713241,37.8599008 29.4214643,37.644376 29.9858373,37.6435046 C30.5139022,37.644376 31.0319461,37.8336138 31.4383063,38.2189153 L32.06876,38.8164012 C32.4996645,39.2253756 32.7143179,39.7729016 32.7160607,40.3339343 C32.7140274,40.8611278 32.5239183,41.3756861 32.1377454,41.7795773 Z M63.1068059,31.6872346 C63.1060797,32.2039714 62.9209085,32.7101062 62.5457732,33.1122546 L61.9551132,33.7460487 C61.5427985,34.1871194 60.9833634,34.4101963 60.4105669,34.4110677 C59.8909255,34.4101963 59.3821765,34.2276392 58.9784305,33.854392 L49.0249299,24.6494191 L47.303781,26.4922726 L57.9577374,36.3621194 C58.4014223,36.7728365 58.624354,37.3305288 58.6276943,37.899985 C58.624354,38.418755 58.4409255,38.9240184 58.0666617,39.3263121 L57.4777444,39.9601062 C57.0654297,40.4011769 56.5059946,40.6233824 55.9331981,40.6251252 C55.4135567,40.6235276 54.9032101,40.4400992 54.5026593,40.0691757 L44.5465445,30.864348 L42.8271384,32.7072015 L51.6627855,40.8779748 C52.0886068,41.2860777 52.3067458,41.829392 52.3067458,42.3869391 C52.3067458,42.9041116 52.1233173,43.4101012 51.7490535,43.8115234 L51.1583934,44.4453175 C50.7476763,44.8863882 50.1866436,45.1094651 49.6122496,45.1110627 C49.0908654,45.1094651 48.5822616,44.9260367 48.1801132,44.5551132 L39.3621845,36.4139673 L39.3605869,36.4139673 L39.3589894,36.4123698 L37.6429237,38.2585637 L37.6446665,38.2601613 L37.6776342,38.2913862 L42.0941506,42.367478 C42.4854067,42.7696264 42.688151,43.2850561 42.6897486,43.8182041 C42.688151,44.3327624 42.5063201,44.8362831 42.1320563,45.2378506 L41.5413962,45.8723708 C41.1290815,46.3134415 40.5713892,46.5347756 40.0001903,46.5365184 C39.4805489,46.5349209 38.9717999,46.3523638 38.5696514,45.9798427 L34.7243339,42.4191807 C35.0589493,41.7627304 35.2457181,41.0503656 35.2457181,40.3355319 C35.2473157,39.1229868 34.7657252,37.9004207 33.8135817,36.9972206 L33.183128,36.3990084 C32.2900942,35.5514323 31.1315755,35.1282252 29.9884515,35.1298227 C29.8997145,35.1298227 29.8102514,35.1501552 29.7232572,35.1552384 C29.7232572,35.1341797 29.7281951,35.1121044 29.7281951,35.0910457 C29.7297927,33.8785006 28.2960587,31.7509916 28.2960587,31.7509916 L27.6673478,31.1545222 C26.9989884,30.5207282 26.1835086,30.1254056 25.3353516,29.9665214 C25.5102113,29.4714243 25.6091146,28.9559946 25.6091146,28.4396935 C25.6091146,27.2271484 25.1291216,26.0035657 24.1769782,25.1013822 L23.5482672,24.5031701 C22.6533454,23.6548678 21.4951172,23.2315154 20.351848,23.2323868 C20.2183794,23.2323868 20.0866536,23.2594 19.9539113,23.2713091 C19.9176032,22.1069812 19.4486478,20.9435246 18.5361528,20.0766326 L18.5361528,20.0757612 L17.9091847,19.4801633 C17.0142628,18.6309896 15.8560347,18.2076372 14.7127654,18.2085086 C13.4933944,18.2076372 12.2657452,18.6858874 11.3576072,19.6339643 L9.863747,21.1928886 L3.24608874,15.5485777 C2.77045272,15.1413462 2.5329978,14.5785707 2.53125501,14.0006911 C2.53285256,13.5164864 2.69769131,13.0424479 3.04915365,12.6488682 L10.0317808,4.82883113 C10.3088842,4.51788862 10.71873,4.23657352 11.198723,4.04123598 C11.6787159,3.84604367 12.2236278,3.73886218 12.733103,3.73958834 C13.1767879,3.73958834 13.5931691,3.81990184 13.9261869,3.96353666 L17.7597406,5.59928886 C18.8404147,6.05473758 20.0950771,6.24150641 21.3559846,6.24557292 C22.6183444,6.24136118 23.8714093,6.05459235 24.9522286,5.59928886 L28.7840395,3.96426282 C29.3746995,3.70662059 30.2659906,3.54686498 31.1523438,3.55020533 C32.132517,3.5442508 33.1142879,3.74714042 33.683744,4.0377504 C34.0453726,4.21769331 34.3884115,4.38848658 34.706906,4.54809696 L30.7989934,7.29516727 C29.5433143,8.17818009 28.8665315,9.58243189 28.8682742,10.9994641 C28.8666767,11.9373748 29.1639673,12.8921324 29.7690054,13.7023838 L29.7674079,13.700641 L30.2835637,14.3942708 C31.263737,15.6972957 32.7921625,16.3672526 34.3198618,16.3705929 C35.1825421,16.3705929 36.0613431,16.1525992 36.8445813,15.6827724 L39.1816607,14.2792468 C39.6583133,13.9877654 40.3780849,13.8036108 41.1224008,13.8069511 C41.9969902,13.801868 42.8782602,14.0605268 43.4080679,14.4498948 L49.8736679,19.0852764 C51.3126302,20.1161358 53.6563902,22.0282652 54.9552033,23.2315154 L62.4388822,30.1508213 C62.8819862,30.5616837 63.1050631,31.1169071 63.1068059,31.6872346 Z M71.169381,14.5444411 L61.1997596,25.5684495 L56.6733023,21.3843049 C55.2555439,20.0754708 52.9175931,18.1668269 51.349374,17.0404046 L44.8855168,12.405023 C43.7895933,11.6286108 42.4477915,11.2929788 41.121239,11.2880409 C39.9923478,11.2913812 38.8550331,11.5374048 37.8732622,12.1219651 L35.5379257,13.5254908 C35.1796374,13.7408704 34.7573017,13.8508113 34.3185547,13.8516827 C33.5342999,13.8542969 32.7494641,13.4883113 32.311879,12.8925681 L31.7973207,12.1998097 L31.7955779,12.1980669 C31.5218149,11.8288862 31.3943009,11.4148287 31.3924129,10.9956881 C31.3957532,10.361894 31.688106,9.74683494 32.254367,9.34715545 L39.164378,4.49203726 C39.761864,4.05953526 40.8248197,3.75614483 41.8344752,3.76369692 C42.5358023,3.76035657 43.2057592,3.9013772 43.6645483,4.1279397 L49.2901242,6.8529347 C50.2492388,7.31346655 51.3316556,7.50183293 52.420608,7.50444712 C53.8197766,7.49762119 55.2341947,7.19350461 56.3995393,6.47779948 L62.1460938,2.90290465 C62.5128055,2.67401843 62.9530048,2.55565405 63.4119391,2.55565405 C64.1876252,2.55405649 64.9649089,2.90551883 65.4051082,3.4791867 L71.296895,11.0179087 C71.6365935,11.4496845 71.8333834,12.0587891 71.8333834,12.6901142 C71.8344,13.3960887 71.5850361,14.0907352 71.169381,14.5444411 Z" fill-rule="nonzero"></path>
                        </g>
                    </g>
                </g>
            </g>
        </g>
    </g>
</svg>