<?xml version="1.0" encoding="UTF-8"?>
<svg width="57px" height="50px" viewBox="0 0 57 50" version="1.1" xmlns="http://www.w3.org/2000/svg" xmlns:xlink="http://www.w3.org/1999/xlink">
    <!-- Generator: Sketch 53.2 (72643) - https://sketchapp.com -->
    <title>biz launched icon</title>
    <desc>Created with Sketch.</desc>
    <g id="Page-1" stroke="none" stroke-width="1" fill="none" fill-rule="evenodd">
        <g id="style-guide" transform="translate(-395.000000, -3711.000000)" fill="#FFFFFF">
            <g id="iconograpy" transform="translate(0.000000, 3421.000000)">
                <g id="homepage-icons" transform="translate(0.000000, 151.000000)">
                    <g id="biz-launched-icon" transform="translate(395.192201, 139.004583)">
                        <g id="shop">
                            <path d="M43.9725489,26.8383295 L36.2892745,26.8383295 C34.1864837,26.8383295 32.4765218,28.5449129 32.4765218,30.6435492 L32.4765218,36.5243432 C32.4765218,38.6229795 34.1864837,40.3295628 36.2892745,40.3295628 L43.9725489,40.3295628 C46.0753398,40.3295628 47.7853016,38.6229795 47.7853016,36.5243432 L47.7853016,30.6435492 C47.7853016,28.5449129 46.0753398,26.8383295 43.9725489,26.8383295 Z M45.0123906,36.5243432 C45.0123906,37.1008916 44.5386849,37.5621304 43.9725489,37.5621304 L36.2892745,37.5621304 C35.7115847,37.5621304 35.2494329,37.0893607 35.2494329,36.5243432 L35.2494329,30.6435492 C35.2494329,30.0670007 35.7231385,29.605762 36.2892745,29.605762 L43.9725489,29.605762 C44.5502387,29.605762 45.0123906,30.0785317 45.0123906,30.6435492 L45.0123906,36.5243432 Z" id="Shape" fill-rule="nonzero"></path>
                            <path d="M56.544278,16.1433561 C56.544278,15.9012058 56.486509,15.6705864 56.3594172,15.463029 L47.9482537,0.703389087 C47.705624,0.276743248 47.2434721,0 46.7466589,0 L9.78606527,0 C9.28925204,0 8.8271002,0.265212279 8.58447048,0.703389087 L0.184860737,15.463029 C0.0693227764,15.6705864 0,15.9012058 0,16.1433561 C0,19.4527441 1.99880672,22.2893624 4.85259435,23.546238 L4.85259435,47.8881128 C4.85259435,48.6491567 5.47649934,49.271829 6.23904988,49.271829 L13.8992167,49.271829 C13.9107705,49.271829 13.9223243,49.271829 13.9338781,49.271829 L24.6789084,49.271829 C24.6904622,49.271829 24.702016,49.271829 24.7135698,49.271829 L50.2936743,49.271829 C51.0562248,49.271829 51.6801298,48.6491567 51.6801298,47.8881128 L51.6801298,23.7192025 C51.6801298,23.6615477 51.6801298,23.6154238 51.668576,23.5692999 C54.5339174,22.3124243 56.544278,19.4642751 56.544278,16.1433561 Z M10.594831,2.77896344 L45.9378932,2.77896344 L52.5120031,14.3214631 L4.03227483,14.3214631 L10.594831,2.77896344 Z M40.2418717,17.0773646 C39.8028275,19.5680538 37.61916,21.4591327 34.9964483,21.4591327 C32.3737366,21.4591327 30.1900691,19.5680538 29.7510249,17.0773646 L40.2418717,17.0773646 Z M26.8048069,17.0773646 C26.3657626,19.5680538 24.1820952,21.4591327 21.5593835,21.4591327 C18.9366718,21.4591327 16.7530043,19.5680538 16.3024063,17.0773646 L26.8048069,17.0773646 Z M2.86534143,17.0773646 L13.3677421,17.0773646 C12.9286978,19.5680538 10.7334765,21.4591327 8.11076484,21.4591327 C5.48805313,21.4706636 3.30438568,19.5680538 2.86534143,17.0773646 Z M23.2924529,46.5043966 L15.3203336,46.5043966 L15.3203336,31.5717922 C15.3203336,30.4878811 16.1984221,29.5999965 17.2960327,29.5999965 L21.3283075,29.5999965 C22.4143644,29.5999965 23.3040067,30.4763501 23.3040067,31.5717922 L23.3040067,46.5043966 L23.2924529,46.5043966 Z M48.9072188,46.5043966 L26.0653639,46.5043966 L26.0653639,31.5717922 C26.0653639,28.9657932 23.9394655,26.832564 21.3167537,26.832564 L17.2844789,26.832564 C14.673321,26.832564 12.5358687,28.9542623 12.5358687,31.5717922 L12.5358687,46.5159275 L7.62550541,46.5159275 L7.62550541,24.2265651 C7.78725855,24.2380961 7.9490117,24.2380961 8.11076484,24.2380961 C10.9067835,24.2380961 13.3792958,22.819787 14.8350742,20.6634958 C16.2908525,22.819787 18.7633648,24.2380961 21.5593835,24.2380961 C24.3554021,24.2380961 26.8163607,22.819787 28.2836928,20.6634958 C29.7394711,22.819787 32.2119834,24.2380961 34.9964483,24.2380961 C37.7924669,24.2380961 40.2534255,22.819787 41.7092038,20.6634958 C43.1649821,22.819787 45.6374945,24.2380961 48.4335131,24.2380961 C48.5952663,24.2380961 48.7454656,24.2265651 48.9072188,24.2265651 L48.9072188,46.5043966 L48.9072188,46.5043966 Z M48.4335131,21.4706636 C45.8108014,21.4706636 43.627134,19.5795848 43.1880897,17.0888955 L53.6904903,17.0888955 C53.2398923,19.5680538 51.0562248,21.4706636 48.4335131,21.4706636 Z" id="Shape" fill-rule="nonzero"></path>
                        </g>
                    </g>
                </g>
            </g>
        </g>
    </g>
</svg>