<?xml version="1.0" encoding="UTF-8"?>
<svg width="61px" height="49px" viewBox="0 0 61 49" version="1.1" xmlns="http://www.w3.org/2000/svg" xmlns:xlink="http://www.w3.org/1999/xlink">
    <!-- Generator: Sketch 53.2 (72643) - https://sketchapp.com -->
    <title>network icon</title>
    <desc>Created with Sketch.</desc>
    <g id="Page-1" stroke="none" stroke-width="1" fill="none" fill-rule="evenodd">
        <g id="style-guide" transform="translate(-727.000000, -3572.000000)" fill="#324A5E">
            <g id="iconograpy" transform="translate(0.000000, 3421.000000)">
                <g id="homepage-icons" transform="translate(0.000000, 151.000000)">
                    <g id="network-icon" transform="translate(727.476188, 0.163503)">
                        <g id="network">
                            <path d="M30.2246156,12.037111 C23.5409836,12.037111 19.389376,15.4535096 19.389376,20.9880754 C19.389376,21.6169774 19.900058,22.1268749 20.5299275,22.1268749 L39.9193036,22.1268749 C40.5491731,22.1268749 41.0598551,21.6169774 41.0598551,20.9880754 C41.0598551,15.4648976 36.9082475,12.037111 30.2246156,12.037111 Z M21.7503177,19.8492758 C22.5030817,14.7360659 28.354111,14.3147101 30.2246156,14.3147101 C32.0951201,14.3147101 37.9461494,14.7360659 38.6989134,19.8492758 L21.7503177,19.8492758 Z" id="Shape" fill-rule="nonzero"></path>
                            <path d="M30.2246156,0.0797159672 C27.2325212,0.0797159672 24.8069958,2.50151552 24.8069958,5.48901374 C24.8132688,8.47394966 27.2350874,10.8920481 30.2246156,10.8983115 C33.2167099,10.8983115 35.6422353,8.47651196 35.6422353,5.48901374 C35.6422353,2.50151552 33.2167099,0.0797159672 30.2246156,0.0797159672 Z M30.2246156,8.62071245 C28.4924029,8.62071245 27.0880988,7.21856553 27.0880988,5.48901374 C27.0880988,3.75946195 28.4924029,2.35731503 30.2246156,2.35731503 C31.9568282,2.35731503 33.3611323,3.75946195 33.3611323,5.48901374 C33.3611323,7.21856553 31.9568282,8.62071245 30.2246156,8.62071245 Z" id="Shape" fill-rule="nonzero"></path>
                            <path d="M10.8352395,38.2295003 C4.15160757,38.2295003 0,41.6458989 0,47.1804646 C0,47.8093666 0.510681948,48.3192641 1.14055153,48.3192641 L20.5299275,48.3192641 C21.1597971,48.3192641 21.6704791,47.8093666 21.6704791,47.1804646 C21.6704791,41.6572868 17.5188715,38.2295003 10.8352395,38.2295003 Z M2.36094167,46.041665 C3.11370568,40.9284551 8.95332951,40.5070993 10.8352395,40.5070993 C12.7171496,40.5070993 18.5567734,40.9284551 19.3095374,46.041665 L2.36094167,46.041665 Z" id="Shape" fill-rule="nonzero"></path>
                            <path d="M10.8352395,26.2721052 C7.84314517,26.2721052 5.41761977,28.6939047 5.41761977,31.681403 C5.4238928,34.6663389 7.84571141,37.0844373 10.8352395,37.0907007 C13.8273339,37.0907007 16.2528593,34.6689012 16.2528593,31.681403 C16.2528593,28.6939047 13.8273339,26.2721052 10.8352395,26.2721052 Z M10.8352395,34.8131017 C9.1030269,34.8131017 7.69872283,33.4109547 7.69872283,31.681403 C7.69872283,29.9518512 9.1030269,28.5497042 10.8352395,28.5497042 C12.5674522,28.5497042 13.9717562,29.9518512 13.9717562,31.681403 C13.9717562,33.4109547 12.5674522,34.8131017 10.8352395,34.8131017 Z" id="Shape" fill-rule="nonzero"></path>
                            <path d="M49.6139916,38.2295003 C42.9303596,38.2295003 38.778752,41.6458989 38.778752,47.1804646 C38.778752,47.8093666 39.289434,48.3192641 39.9193036,48.3192641 L59.3086796,48.3192641 C59.9385492,48.3192641 60.4492311,47.8093666 60.4492311,47.1804646 C60.4492311,41.6572868 56.2976235,38.2295003 49.6139916,38.2295003 Z M41.1396937,46.041665 C41.8924577,40.9284551 47.7320815,40.5070993 49.6139916,40.5070993 C51.4959016,40.5070993 57.3355254,40.9284551 58.0882894,46.041665 L41.1396937,46.041665 Z" id="Shape" fill-rule="nonzero"></path>
                            <path d="M49.6139916,26.2721052 C46.6218972,26.2721052 44.1963718,28.6939047 44.1963718,31.681403 C44.2026448,34.6663389 46.6244634,37.0844373 49.6139916,37.0907007 C52.6060859,37.0907007 55.0316113,34.6689012 55.0316113,31.681403 C55.0316113,28.6939047 52.6060859,26.2721052 49.6139916,26.2721052 Z M49.6139916,34.8131017 C47.8817789,34.8131017 46.4774749,33.4109547 46.4774749,31.681403 C46.4774749,29.9518512 47.8817789,28.5497042 49.6139916,28.5497042 C51.3462042,28.5497042 52.7505083,29.9518512 52.7505083,31.681403 C52.7505083,33.4109547 51.3462042,34.8131017 49.6139916,34.8131017 Z" id="Shape" fill-rule="nonzero"></path>
                            <path d="M36.121267,36.2593771 L31.3651671,31.487807 L31.3651671,24.7688898 C31.3651671,24.1399878 30.8544851,23.6300903 30.2246156,23.6300903 C29.594746,23.6300903 29.084064,24.1399878 29.084064,24.7688898 L29.084064,31.487807 L24.3279641,36.2366011 C23.8775889,36.6800211 23.8724564,37.4040129 24.3165586,37.8536964 C24.7606609,38.3033799 25.4857665,38.3085045 25.9361418,37.8650844 L30.2246156,33.5718102 L34.5130893,37.8650844 C34.9915507,38.2741981 35.7115238,38.2185393 36.121267,37.7408129 C36.4869563,37.3144748 36.4869563,36.6857151 36.121267,36.2593771 Z" id="Path" fill-rule="nonzero"></path>
                        </g>
                    </g>
                </g>
            </g>
        </g>
    </g>
</svg>