<?xml version="1.0" encoding="UTF-8"?>
<svg width="45px" height="49px" viewBox="0 0 45 49" version="1.1" xmlns="http://www.w3.org/2000/svg" xmlns:xlink="http://www.w3.org/1999/xlink">
    <!-- Generator: Sketch 53.2 (72643) - https://sketchapp.com -->
    <title>parental support icon</title>
    <desc>Created with Sketch.</desc>
    <g id="Page-1" stroke="none" stroke-width="1" fill="none" fill-rule="evenodd">
        <g id="style-guide" transform="translate(-900.000000, -3572.000000)" fill="#324A5E">
            <g id="iconograpy" transform="translate(0.000000, 3421.000000)">
                <g id="homepage-icons" transform="translate(0.000000, 151.000000)">
                    <g id="parental-support-icon" transform="translate(900.000000, 0.163503)">
                        <g id="family-room" transform="translate(0.000000, -0.000000)">
                            <path d="M44.866068,8.01936558 C44.5448054,6.24607175 43.7398255,4.59720921 42.5379435,3.25001262 C42.5355908,3.24740797 42.5333557,3.24468492 42.531003,3.24208027 C41.9154163,2.54249466 40.8952811,1.58066804 39.5316503,0.971179684 L39.5005945,0.957327675 C38.1844883,0.322029592 36.7721563,0 35.3030064,0 C33.1302784,0 31.075186,0.70586045 29.3598249,2.0414545 C29.358178,2.04275683 29.350414,2.04891328 29.3482966,2.05045239 C27.8736178,3.20940374 26.9004191,4.86548827 26.7799604,5.07646501 L26.7799604,5.07646501 C26.7745491,5.08569968 26.7692555,5.09505275 26.7641972,5.10440581 C25.9905084,6.53199141 25.5816074,8.1501901 25.5816074,9.7841351 C25.5816074,10.1234501 25.5992527,10.4669089 25.6343081,10.8048032 C25.6668931,11.1205579 25.8546394,11.398782 26.1340238,11.5459448 C26.3109476,11.6391203 26.4958706,11.7166678 26.685852,11.7779955 C27.4431894,14.1110526 29.0972624,15.9769299 31.2001149,17.0262491 C30.2986739,17.4896402 29.4891063,18.1023252 28.7888221,18.851636 C28.4327394,19.2326254 28.4509729,19.8320503 28.8296416,20.1904266 C29.2081927,20.5486846 29.8037813,20.5303336 30.159864,20.1493442 C30.4964192,19.789192 30.864736,19.4692935 31.2619911,19.1917797 C31.8317,20.8162533 33.3000265,22.006342 34.9700979,22.006342 L35.1105547,22.006342 C36.7834493,22.006342 38.2503642,20.7308917 38.7864293,19.0050736 C40.773646,20.2588579 42.0450507,22.4927014 42.0450507,24.882232 L42.0450507,34.7205912 L33.48542,40.3105277 C33.0493452,40.5952634 32.9252397,41.1817835 33.2082708,41.6205488 C33.3884884,41.9000752 33.6904587,42.0522105 33.9985461,42.0522105 C34.174176,42.0522105 34.351688,42.0028406 34.5099077,41.8994833 L43.4983198,36.0295468 C43.7657054,35.8549168 43.9272189,35.5558555 43.9272189,35.2350098 L43.9272189,24.882232 C43.9272189,21.5280334 42.0666956,18.5215556 39.1262783,17.021395 C41.9108286,15.6226973 43.8799294,12.7997291 44.0728517,9.51183067 C44.3384727,9.26947972 44.5693912,8.984744 44.754079,8.6644903 C44.8666562,8.46985183 44.9062993,8.24099771 44.866068,8.01936558 Z M35.1106723,20.1121687 L34.9702155,20.1121687 C33.8439731,20.1121687 32.8924194,19.0134795 32.8924194,17.7129299 C32.8924194,17.69671 32.8920665,17.6806085 32.891243,17.664507 C33.6209361,17.8576064 34.3841554,17.9597797 35.1667845,17.9597797 C35.83566,17.9597797 36.4884195,17.8847184 37.1162402,17.7425282 C37.0426004,19.0230694 36.1370422,20.1121687 35.1106723,20.1121687 Z M35.1666668,16.065488 C32.3289453,16.065488 29.8128392,14.3641773 28.7105945,11.8139871 C30.0172898,11.4419955 31.0168387,10.3262577 31.2276416,8.95206746 C31.7891159,9.02464252 32.3581189,9.06122602 32.929004,9.06122602 C34.8431691,9.06122602 36.6872235,8.65738671 38.3387085,7.88404212 C38.7643138,9.35507803 40.1161811,10.4331668 41.7134362,10.4331668 C41.8298953,10.4331668 41.9456487,10.4272471 42.0603433,10.4156446 C41.3967614,13.6335727 38.5492761,16.065488 35.1666668,16.065488 Z M41.7134362,8.53899348 C40.8136421,8.53899348 40.0815963,7.80246918 40.0815963,6.89699774 L40.0815963,6.36991107 C40.0815963,6.02526837 39.8956145,5.70785612 39.5958792,5.54104005 C39.2960263,5.3741056 38.9299446,5.38440581 38.6400907,5.56779692 C36.9841355,6.61403792 35.0092705,7.1670527 32.9288864,7.1670527 C32.1153192,7.1670527 31.3071632,7.08074404 30.5268868,6.91049457 C30.2489141,6.84975884 29.9583544,6.91901888 29.7367291,7.0988582 C29.5152214,7.27869752 29.3864105,7.54969963 29.3864105,7.83609286 L29.3864105,8.41065521 C29.3864105,9.31600826 28.6544823,10.052651 27.7548059,10.052651 C27.6931649,10.052651 27.6322297,10.0492175 27.5720003,10.0424691 C27.5580017,10.0403381 27.544003,10.0385622 27.5300044,10.0371414 C27.5089477,10.0343 27.4881262,10.0308666 27.4673047,10.0271964 C27.4648343,9.94597865 27.4635404,9.86499768 27.4635404,9.78425349 C27.4635404,8.47008862 27.7911553,7.16918378 28.4110944,6.0213614 C28.4135648,6.01674406 28.4161528,6.01224512 28.4181526,6.00881171 C28.4261518,5.99424935 29.276186,4.51113733 30.5051242,3.54469337 C30.5075946,3.54268069 30.5107707,3.54031282 30.5113589,3.53983925 C31.8940468,2.46328959 33.550943,1.89429171 35.3030064,1.89429171 C36.4881842,1.89429171 37.6266607,2.15369129 38.6866743,2.66526844 C38.7050255,2.67414794 38.7321993,2.68657922 38.7677252,2.70232552 C39.8143284,3.17021558 40.6178966,3.92745869 41.1107894,4.48520921 C41.1162006,4.49160244 41.1217295,4.49787728 41.127376,4.50427052 C42.0155242,5.49605062 42.6361691,6.69087512 42.9359044,7.97958546 C42.6280523,8.330503 42.1829195,8.53899348 41.7134362,8.53899348 Z M27.1514533,32.7721938 C29.28395,31.5092932 30.7183974,29.1746971 30.7183974,26.509547 C30.7183974,25.3102236 30.4278377,24.1776739 29.9141234,23.1797374 C29.8956546,23.1378262 29.8745979,23.0979276 29.8510708,23.0600418 C28.6293083,20.7923378 26.2424837,19.2488453 23.5041642,19.2488453 C20.7652565,19.2488453 18.3779613,20.7928114 17.1565518,23.0615809 C17.1337305,23.0985196 17.1131443,23.137471 17.095146,23.1781982 C16.5807259,24.17649 16.2900485,25.3095132 16.2900485,26.509547 C16.2900485,29.1742235 17.7237902,31.5083461 19.8556987,32.7713651 C17.2167811,34.1443714 15.5451805,36.8697836 15.5451805,39.8859696 L15.5451805,43.3404473 C15.5451805,43.6642528 15.7095173,43.9655636 15.9809024,44.1394832 L22.9989196,48.6360582 C23.1531398,48.7347981 23.328652,48.7841681 23.5042818,48.7841681 C23.6788529,48.7841681 23.853424,48.7353901 24.0069384,48.6377157 L31.0415422,44.164701 C31.3158682,43.9903077 31.481499,43.6860371 31.4799698,43.3595086 L31.4633832,39.8814706 C31.4490316,36.858181 29.7791955,34.1417667 27.1514533,32.7721938 Z M23.5041642,21.143137 C25.1422387,21.143137 26.6098594,21.8901983 27.5888222,23.063712 C26.3207113,23.4294287 24.9300243,23.6201602 23.5043994,23.6201602 C22.0783041,23.6201602 20.6874994,23.4294287 19.4195062,23.063712 C20.3984689,21.8901983 21.8662073,21.143137 23.5041642,21.143137 Z M18.1720992,26.509547 C18.1720992,25.8942574 18.2755008,25.3026464 18.465835,24.7517627 C20.0187415,25.2523293 21.7419842,25.5144519 23.5043994,25.5144519 C25.2663442,25.5144519 26.9893516,25.2523293 28.5424933,24.7517627 C28.7328276,25.3026464 28.8362292,25.8942574 28.8362292,26.509547 C28.8362292,29.4685491 26.4443462,31.875957 23.5041642,31.875957 C20.5640997,31.875957 18.1720992,29.4685491 18.1720992,26.509547 Z M25.1745885,33.5738344 C25.056953,34.4698344 24.2760884,35.0755341 23.5695695,35.0755341 L23.4549925,35.0755341 C22.706713,35.0755341 21.8757357,34.4385786 21.7680992,33.5577329 C22.32428,33.6964898 22.9058699,33.7702488 23.5040465,33.7702488 C24.0788137,33.7702488 24.6382882,33.7021727 25.1745885,33.5738344 Z M23.506164,46.7156016 L17.4272311,42.820701 L17.4272311,39.886088 C17.4272311,37.8034326 18.4727755,35.9018005 20.1651977,34.7810902 C20.7532576,36.1316018 22.1394746,36.9698259 23.4549925,36.9698259 L23.5695695,36.9698259 C24.9897831,36.9698259 26.2451893,36.0396102 26.787489,34.7472297 C28.5043794,35.86131 29.5710982,37.7778597 29.5810973,39.8905869 L29.5952135,42.8437877 L23.506164,46.7156016 Z M16.7464744,21.2920757 C17.0208004,20.8477459 16.8852843,20.263712 16.4439158,19.987619 C16.1573557,19.8083717 15.8602084,19.6458178 15.5552971,19.5011412 C16.7182418,18.9027818 17.7469644,18.0457332 18.5635902,16.9736825 C18.8999101,17.0911286 19.2609335,17.1550609 19.6364261,17.1550609 C21.4448368,17.1550609 22.9161042,15.6743168 22.9161042,13.8542576 L22.9161042,11.5004818 C22.9161042,8.50844802 21.780451,5.67470601 19.718418,3.5214883 C17.6622668,1.37454543 14.9018318,0.127391118 11.9456513,0.00970824504 C11.9454161,0.00970824504 11.9450631,0.00970824504 11.9448279,0.00970824504 C11.6879119,-0.000236786464 11.4487589,-0.00260465111 11.2136055,0.00319661727 C8.27060019,0.0747061295 5.49451966,1.273556 3.39672551,3.37882445 C1.24599538,5.53713308 0.0615233746,8.42154739 0.0615233746,11.5006002 L0.0615233746,13.854376 C0.0615233746,15.6744352 1.53279077,17.1551793 3.34131918,17.1551793 C3.71681175,17.1551793 4.07771751,17.0913654 4.41391981,16.9739193 C5.3134786,18.1547734 6.47054153,19.0748072 7.78088354,19.6755345 C4.87705084,21.2125154 3.08099179,24.1877373 3.08099179,27.4823842 L3.08099179,35.2352466 C3.08099179,35.5560923 3.24238771,35.8551536 3.50989088,36.0297836 L12.0472884,41.6050393 C12.2055082,41.7083966 12.3830202,41.7577666 12.55865,41.7577666 C12.8667374,41.7577666 13.1688254,41.6055129 13.3489254,41.3261048 C13.6318388,40.8872211 13.5077333,40.3007011 13.0717761,40.0160837 L4.96316003,34.720828 L4.96316003,27.4823842 C4.96316003,25.2909255 5.97706054,23.2788325 7.67559975,21.9804139 C8.25813082,23.6817247 9.75398404,24.9600164 11.4079394,24.9600164 L11.5483962,24.9600164 C13.3446905,24.9600164 14.7784322,23.3235851 15.2833238,21.4953568 C15.3394359,21.5282702 15.3950775,21.5620122 15.4502486,21.5964647 C15.8918523,21.8727945 16.4721483,21.7362871 16.7464744,21.2920757 Z M5.66885549,8.05819856 C5.06044461,9.09816471 4.73882911,10.2884903 4.73882911,11.5006002 L4.73882911,13.854376 C4.73882911,14.3030864 4.52896735,14.7033739 4.20276406,14.961116 C4.17476681,14.9794669 4.14806355,14.9991202 4.12265428,15.0199574 C3.8994997,15.1720927 3.63046728,15.2608876 3.34120155,15.2608876 C2.57057128,15.2608876 1.94369162,14.6299701 1.94369162,13.854376 L1.94369162,11.5004818 C1.94369162,6.24228317 6.03552539,2.0239323 11.2586599,1.89677797 C11.4539349,1.89192385 11.6545034,1.89405493 11.8718939,1.90246085 C17.0093897,2.10739953 21.0338183,6.32326414 21.0338183,11.5004818 L21.0338183,13.8542576 C21.0338183,14.6298517 20.4068211,15.2607692 19.6361908,15.2607692 C19.3469251,15.2607692 19.077775,15.1718559 18.8545028,15.0197206 C18.8292112,14.9990018 18.8026255,14.9794669 18.7747459,14.961116 C18.4485426,14.7033739 18.2385632,14.302968 18.2385632,13.8542576 L18.2385632,11.5004818 C18.2385632,8.1572937 15.7639825,5.26826205 12.4824222,4.78036354 C12.2244475,4.74176734 11.9622379,4.81304007 11.7583756,4.97665951 C11.5545132,5.14027896 11.427114,5.38156437 11.4066454,5.64321341 C11.3550034,6.30526837 11.235721,6.95808865 11.0511509,7.59161083 L6.4797171,7.59161083 C6.14645568,7.59161083 5.83789773,7.76908229 5.66885549,8.05819856 Z M11.5483962,23.0657247 L11.4079394,23.0657247 C10.3440438,23.0657247 9.29979331,21.7658854 9.29979331,20.4414203 C9.29979331,20.359729 9.28932375,20.27934 9.26932571,20.202266 C9.98407911,20.3851835 10.728359,20.4804901 11.4888726,20.4804901 C12.208802,20.4804901 12.9143798,20.3950101 13.5939602,20.2307987 C13.5299664,21.6080672 12.4943034,23.0657247 11.5483962,23.0657247 Z M11.4888726,18.5861983 C9.2954408,18.5861983 7.27105121,17.5811582 5.94106407,15.8643379 C6.36713991,15.3072978 6.62087972,14.6099616 6.62087972,13.8542576 L6.62087972,11.5004818 C6.62087972,10.8027905 6.76839465,10.1155178 7.05048462,9.48590255 L11.7303783,9.48590255 C12.1243397,9.48590255 12.4765404,9.23905266 12.6131152,8.86706112 C12.8483863,8.22655374 13.0258983,7.56580111 13.1440043,6.89285398 C15.0281724,7.58308652 16.3565126,9.41972073 16.3565126,11.5004818 L16.3565126,13.8542576 C16.3565126,14.6099616 16.6102524,15.3072978 17.0364459,15.8643379 C15.7065764,17.5812766 13.6823044,18.5861983 11.4888726,18.5861983 Z" id="XMLID_173_" fill-rule="nonzero"></path>
                        </g>
                    </g>
                </g>
            </g>
        </g>
    </g>
</svg>