<?xml version="1.0" encoding="UTF-8"?>
<svg width="55px" height="49px" viewBox="0 0 55 49" version="1.1" xmlns="http://www.w3.org/2000/svg" xmlns:xlink="http://www.w3.org/1999/xlink">
    <!-- Generator: Sketch 53.2 (72643) - https://sketchapp.com -->
    <title>plant icon</title>
    <desc>Created with Sketch.</desc>
    <g id="Page-1" stroke="none" stroke-width="1" fill="none" fill-rule="evenodd">
        <g id="style-guide" transform="translate(-69.000000, -3572.000000)" fill="#324A5E">
            <g id="iconograpy" transform="translate(0.000000, 3421.000000)">
                <g id="homepage-icons" transform="translate(0.000000, 151.000000)">
                    <g id="plant-icon" transform="translate(69.833320, 0.163503)">
                        <g>
                            <path d="M21.4746205,5.28700602 C16.8081525,0.608530287 7.67645062,0.066030554 1.21274732,0.066030554 C0.543331716,0.066030554 0,0.610925178 0,1.28240687 C0,7.76605988 0.538442982,16.9259461 5.20491093,21.6069307 C7.17438892,23.5824874 10.1940354,24.4656318 13.1869643,24.4656318 C16.439451,24.4656318 19.6628326,23.4219156 21.4746205,21.6045358 C24.9502836,18.1181454 25.5882066,9.41077948 21.4746205,5.28700602 Z M19.7599252,19.8868291 C17.1646891,22.4875662 9.95880764,22.9327878 6.92222115,19.8868291 C3.1555078,16.1086041 2.50303224,8.43275179 2.4326572,2.50619595 C8.34097748,2.5767882 15.9932118,3.23116354 19.7598115,7.00950254 C22.7965116,10.0554612 22.35266,17.286092 19.7599252,19.8868291 Z" id="Shape" fill-rule="nonzero"></path>
                            <path d="M52.2022517,4.87827803 C45.7385484,4.87827803 36.6068465,5.41838287 31.9402649,10.0992535 C27.8267924,14.223027 28.4646018,22.9303929 31.9402649,26.4167833 C33.7520527,28.2317682 36.9730468,29.2754843 40.2255335,29.2754843 C43.2184624,29.2754843 46.2357214,28.3947348 48.2099744,26.4192922 C52.8740548,21.7384216 53.4148853,12.5785354 53.4148853,6.09476839 C53.414999,5.4232867 52.8716673,4.87827803 52.2022517,4.87827803 Z M46.4903904,24.6966817 C43.4538039,27.7426403 36.2454212,27.2974188 33.6526864,24.6966817 C31.0599515,22.0959446 30.6160999,14.8653138 33.6526864,11.8193551 C37.4193997,8.04101612 45.0715203,7.38664079 50.9798406,7.31604854 C50.9095793,13.2449993 50.2571037,20.9208516 46.4903904,24.6966817 Z" id="Shape" fill-rule="nonzero"></path>
                            <path d="M43.4441401,15.4079276 C43.1579786,14.7972305 42.3381491,14.5880767 41.7342198,14.8702176 C32.4327765,19.2567448 27.8632874,26.9057972 25.7870531,34.7689071 C23.2185345,18.049948 15.7894766,12.9530507 12.6388576,10.7902364 C12.2459397,10.520184 11.9403369,10.3231187 11.7705955,10.1552483 C11.2976388,9.6808319 10.5287432,9.6808319 10.0557865,10.1552483 C9.58282982,10.6296647 9.58282982,11.4009335 10.0557865,11.87535 C10.295903,12.1138126 10.7106496,12.4130599 11.2709213,12.7973828 C14.8217345,15.2327584 24.2541505,21.7067178 24.2541505,47.5076721 C24.2541505,48.1791538 24.7974822,48.7241625 25.4668978,48.7241625 C26.1363134,48.7241625 26.6796451,48.1791538 26.6796451,47.5101811 C26.6796451,37.0852225 29.4713401,23.3417438 42.7674482,17.0745433 C42.7674482,17.0721484 42.9639072,16.97966 42.9639072,16.97966 C43.5678365,16.6925013 43.7303016,16.0161157 43.4441401,15.4079276 Z" id="Path" fill-rule="nonzero"></path>
                        </g>
                    </g>
                </g>
            </g>
        </g>
    </g>
</svg>