<?xml version="1.0" encoding="UTF-8"?>
<svg width="37px" height="50px" viewBox="0 0 37 50" version="1.1" xmlns="http://www.w3.org/2000/svg" xmlns:xlink="http://www.w3.org/1999/xlink">
    <!-- Generator: Sketch 53.2 (72643) - https://sketchapp.com -->
    <title>star icon</title>
    <desc>Created with Sketch.</desc>
    <g id="Page-1" stroke="none" stroke-width="1" fill="none" fill-rule="evenodd">
        <g id="style-guide" transform="translate(-561.000000, -3711.000000)" fill="#FFFFFF">
            <g id="iconograpy" transform="translate(0.000000, 3421.000000)">
                <g id="homepage-icons" transform="translate(0.000000, 151.000000)">
                    <g id="star-icon" transform="translate(561.166680, 139.004583)">
                        <g id="talent">
                            <path d="M35.3471953,27.1699827 C34.4958922,26.3104309 33.3640588,25.8370928 32.1601317,25.8370928 C30.9562045,25.8370928 29.8243711,26.3100537 28.973068,27.1699827 L25.7146578,30.4603422 C25.6937394,26.3677595 22.3905041,23.0445867 18.3327132,23.0445867 C14.2745488,23.0445867 10.9716869,26.3677595 10.9507686,30.4599651 L7.69198479,27.1696054 C6.84068167,26.3104309 5.7088483,25.8370928 4.50492116,25.8370928 C3.30099403,25.8370928 2.16916065,26.3100537 1.31823105,27.1699827 C-0.439285845,28.9441518 -0.439285845,31.8313254 1.31785753,33.6058718 L10.752791,43.1318477 L10.752791,47.9870517 C10.752791,48.7870118 11.3949104,49.435353 12.1871938,49.435353 L24.4782324,49.435353 C25.2705159,49.435353 25.9126352,48.7870118 25.9126352,47.9870517 L25.9126352,43.1318477 L35.3475688,33.6058718 C37.1047122,31.8313254 37.1047122,28.9441518 35.3471953,27.1699827 Z M18.3327132,25.9411894 C20.8216261,25.9411894 22.8465993,27.9857836 22.8465993,30.4991899 C22.8465993,33.0122191 20.8216261,35.0571905 18.3327132,35.0571905 C15.8434268,35.0571905 13.8184534,33.0122191 13.8184534,30.4991899 C13.8184534,27.9857836 15.8434268,25.9411894 18.3327132,25.9411894 Z M33.3188601,31.557506 L23.4640649,41.5077889 C23.1951144,41.7797226 23.0438297,42.1478325 23.0438297,42.5321603 L23.0438297,46.5387503 L13.6215966,46.5387503 L13.6215966,42.5321603 C13.6215966,42.1478325 13.4703119,41.7793454 13.2013614,41.5077889 L3.34619273,31.557506 C2.70743521,30.9125592 2.70780873,29.8629179 3.34656625,29.2179712 C3.65585935,28.9056813 4.06750301,28.7336955 4.50492116,28.7336955 C4.94271284,28.7336955 5.35398298,28.9056813 5.66364959,29.2179712 L13.8950297,37.5294861 C14.1639802,37.8010426 14.5289311,37.9537932 14.9091972,37.9537932 L21.7558555,37.9537932 C22.1364953,37.9537932 22.5014462,37.8010426 22.7703968,37.5294861 L31.0017767,29.2179712 C31.3114434,28.9056813 31.7227135,28.7336955 32.1605052,28.7336955 C32.5979233,28.7336955 33.009567,28.9053041 33.3188601,29.2179712 C33.9576176,29.8629179 33.9576176,30.9125592 33.3188601,31.557506 Z" id="Shape" fill-rule="nonzero"></path>
                            <path d="M11.990337,13.7237869 L10.9840138,19.6456045 C10.8917489,20.1890946 11.112886,20.7382422 11.5544131,21.0622242 C11.8043129,21.2455248 12.100532,21.3390609 12.3978718,21.3390609 C12.6261061,21.3390609 12.8550877,21.2839954 13.065392,21.1723555 L18.3327132,18.376455 L23.6000344,21.1723555 C23.8095916,21.2839954 24.0389466,21.3390609 24.267181,21.3390609 C24.2686752,21.3390609 24.2701694,21.3390609 24.27129,21.3390609 C25.0624528,21.3375524 25.7038251,20.6895884 25.7038251,19.8907596 C25.7038251,19.7794969 25.6914981,19.6712515 25.667965,19.5667777 L24.6750893,13.7237869 L28.9364608,9.52974753 C29.3275597,9.14504248 29.4680117,8.56949351 29.299544,8.0448614 C29.1307029,7.52060653 28.681705,7.13854164 28.1415626,7.05933761 L22.252667,6.19525987 L19.6188196,0.807126278 C19.3771376,0.313044352 18.8784586,0 18.3327132,0 C17.7865942,0 17.2879151,0.313044352 17.0462332,0.807126278 L14.4127594,6.19525987 L8.52386371,7.05933761 C7.98334785,7.13854164 7.53472347,7.52060653 7.36588232,8.0448614 C7.19704116,8.56949351 7.33786661,9.14504248 7.72896551,9.52974753 L11.990337,13.7237869 Z M15.5714879,8.95231277 C16.0387894,8.88366927 16.4422151,8.58759727 16.6513989,8.16027296 L18.3327132,4.72093438 L20.0136539,8.16027296 C20.2224641,8.58759727 20.6262634,8.88366927 21.0935649,8.95231277 L24.8528955,9.50410052 L22.1327599,12.181195 C21.794704,12.5138518 21.640431,12.9932244 21.7199955,13.463168 L22.3621149,17.2430838 L19.0002334,15.458354 C18.7910497,15.3470913 18.5616947,15.2916485 18.3327132,15.2916485 C18.1033582,15.2916485 17.8740031,15.3470913 17.665193,15.458354 L14.3029379,17.2430838 L14.9454308,13.463168 C15.0253689,12.9932244 14.8710959,12.5138518 14.53304,12.181195 L11.8125309,9.50372339 L15.5714879,8.95231277 Z" id="Shape" fill-rule="nonzero"></path>
                        </g>
                    </g>
                </g>
            </g>
        </g>
    </g>
</svg>