<?xml version="1.0" encoding="UTF-8"?>
<svg width="14px" height="14px" viewBox="0 0 14 14" version="1.1" xmlns="http://www.w3.org/2000/svg" xmlns:xlink="http://www.w3.org/1999/xlink">
    <!-- Generator: Sketch 53.2 (72643) - https://sketchapp.com -->
    <title>bookmark icon</title>
    <desc>Created with Sketch.</desc>
    <g id="Page-1" stroke="none" stroke-width="1" fill="none" fill-rule="evenodd">
        <g id="generic-dash" transform="translate(-113.000000, -238.000000)" fill="#000000" fill-rule="nonzero">
            <g id="Top-of-page" transform="translate(-0.500000, 20.000000)">
                <g id="profile" transform="translate(83.000000, 72.039062)">
                    <g id="my-files" transform="translate(18.075365, 145.960938)">
                        <g id="bookmark-icon" transform="translate(12.424635, 0.055531)">
                            <path d="M13.5596638,1.49429859 C13.5596638,0.684805675 12.830819,0.0202129698 11.9303534,0.00243529757 L11.9303534,0 L1.90737931,0 C0.995508621,0 0.25362931,0.665079765 0.25362931,1.48309622 L0.25362931,13.8490502 L5.41311207,10.7645023 L10.5725948,13.8490502 L10.5725948,6.08824391 L13.5596638,6.08824391 L13.5596638,1.49429859 Z M10.0294914,12.939223 L5.41311207,10.1790568 L0.796732759,12.939223 L0.796732759,1.48309622 C0.796732759,0.933936616 1.29503017,0.487059513 1.90737931,0.487059513 L10.6013793,0.487059513 C10.334444,0.721335139 10.1446293,1.02574733 10.0677802,1.36644546 L10.0675086,1.36717605 C10.0552888,1.42123966 10.0457845,1.47627738 10.0395388,1.5320457 C10.0330216,1.58878813 10.0294914,1.64650468 10.0294914,1.7047083 L10.0294914,6.08824391 L10.0294914,12.939223 Z M13.0165603,5.6011844 L10.5725948,5.6011844 L10.5725948,1.7047083 C10.5725948,1.62190818 10.5820991,1.54129983 10.59975,1.46312678 C10.7048405,1.00285554 11.1042931,0.635369135 11.6120948,0.524319566 C11.6218707,0.522127798 11.6305603,0.518231322 11.6403362,0.516526614 C11.7063233,0.503376007 11.775569,0.498748941 11.8448147,0.494852465 C11.8673534,0.493634816 11.888806,0.489007751 11.9116164,0.488764221 C12.5215216,0.497774822 13.0165603,0.946843693 13.0165603,1.49429859 L13.0165603,5.6011844 Z" id="Shape"></path>
                        </g>
                    </g>
                </g>
            </g>
        </g>
    </g>
</svg>