<?xml version="1.0" encoding="UTF-8"?>
<svg width="41px" height="41px" viewBox="0 0 41 41" version="1.1" xmlns="http://www.w3.org/2000/svg" xmlns:xlink="http://www.w3.org/1999/xlink">
    <!-- Generator: Sketch 53.2 (72643) - https://sketchapp.com -->
    <title>calendar icon</title>
    <desc>Created with Sketch.</desc>
    <defs>
        <filter x="-5.6%" y="-5.6%" width="111.2%" height="111.1%" filterUnits="objectBoundingBox" id="filter-1">
            <feOffset dx="0" dy="1" in="SourceAlpha" result="shadowOffsetOuter1"></feOffset>
            <feGaussianBlur stdDeviation="1" in="shadowOffsetOuter1" result="shadowBlurOuter1"></feGaussianBlur>
            <feColorMatrix values="0 0 0 0 0   0 0 0 0 0   0 0 0 0 0  0 0 0 0.5 0" type="matrix" in="shadowBlurOuter1" result="shadowMatrixOuter1"></feColorMatrix>
            <feMerge>
                <feMergeNode in="shadowMatrixOuter1"></feMergeNode>
                <feMergeNode in="SourceGraphic"></feMergeNode>
            </feMerge>
        </filter>
        <linearGradient x1="67.8876057%" y1="87.814461%" x2="87.3990414%" y2="78.9413495%" id="linearGradient-2">
            <stop stop-color="#01ADB5" offset="0%"></stop>
            <stop stop-color="#5483C8" offset="100%"></stop>
        </linearGradient>
        <linearGradient x1="67.8876057%" y1="59.4536152%" x2="87.3990414%" y2="57.2353374%" id="linearGradient-3">
            <stop stop-color="#01ADB5" offset="0%"></stop>
            <stop stop-color="#5483C8" offset="100%"></stop>
        </linearGradient>
    </defs>
    <g id="Page-1" stroke="none" stroke-width="1" fill="none" fill-rule="evenodd">
        <g id="generic-dash" transform="translate(-250.000000, -638.000000)" fill-rule="nonzero">
            <g id="calendar" filter="url(#filter-1)" transform="translate(213.000000, 605.697474)">
                <g id="calendar-icon" transform="translate(39.748608, 33.974900)">
                    <path d="M33.039391,4.17444643 L31.9781686,4.17444643 L31.9781686,3.13083482 C31.9781686,1.4044925 30.5499755,1.42108547e-14 28.7945014,1.42108547e-14 C27.0390273,1.42108547e-14 25.6108342,1.4044925 25.6108342,3.13083482 L25.6108342,4.17444643 L21.3659445,4.17444643 L21.3659445,3.13083482 C21.3659445,1.4044925 19.9377514,1.42108547e-14 18.1822773,1.42108547e-14 C16.4268032,1.42108547e-14 14.9986101,1.4044925 14.9986101,3.13083482 L14.9986101,4.17444643 L10.6122241,4.17444643 L10.6122241,3.13083482 C10.6122241,1.4044925 9.18403099,1.42108547e-14 7.42855687,1.42108547e-14 C5.67308276,1.42108547e-14 4.24488964,1.4044925 4.24488964,3.13083482 L4.24488964,4.17444643 L3.18366723,4.17444643 C1.42819312,4.17444643 6.39488462e-14,5.57893893 6.39488462e-14,7.30528125 C6.39488462e-14,7.45667451 6.39488462e-14,32.0909178 6.39488462e-14,32.491108 C6.39488462e-14,34.2174504 1.42819312,35.6219429 3.18366723,35.6219429 L33.039391,35.6219429 C34.7948652,35.6219429 36.2230583,34.2174504 36.2230583,32.491108 C36.2230583,32.2988748 36.2230583,7.64438545 36.2230583,7.30528125 C36.2230583,5.57893893 34.7948652,4.17444643 33.039391,4.17444643 Z M27.733279,3.13083482 C27.733279,2.55538738 28.2093434,2.08722322 28.7945014,2.08722322 C29.3796594,2.08722322 29.8557238,2.55538738 29.8557238,3.13083482 L29.8557238,7.30528125 C29.8557238,7.88072869 29.3796594,8.34889286 28.7945014,8.34889286 C28.2093434,8.34889286 27.733279,7.88072869 27.733279,7.30528125 L27.733279,3.13083482 Z M17.1210549,3.13083482 C17.1210549,2.55538738 17.5971193,2.08722322 18.1822773,2.08722322 C18.7674353,2.08722322 19.2434997,2.55538738 19.2434997,3.13083482 L19.2434997,7.30528125 C19.2434997,7.88072869 18.7674353,8.34889286 18.1822773,8.34889286 C17.5971193,8.34889286 17.1210549,7.88072869 17.1210549,7.30528125 L17.1210549,3.13083482 Z M6.36733446,3.13083482 C6.36733446,2.55538738 6.84339884,2.08722322 7.42855687,2.08722322 C8.01371491,2.08722322 8.48977928,2.55538738 8.48977928,3.13083482 L8.48977928,7.30528125 C8.48977928,7.88072869 8.01371491,8.34889286 7.42855687,8.34889286 C6.84339884,8.34889286 6.36733446,7.88072869 6.36733446,7.30528125 L6.36733446,3.13083482 Z M34.1006135,32.491108 C34.1006135,33.0665555 33.6245491,33.5347197 33.039391,33.5347197 L3.18366723,33.5347197 C2.59850919,33.5347197 2.12244482,33.0665555 2.12244482,32.491108 L2.12244482,14.7497107 L34.1006135,14.7497107 L34.1006135,32.491108 Z M34.1006135,12.6624875 L2.12244482,12.6624875 L2.12244482,7.30528125 C2.12244482,6.72983381 2.59850919,6.26166965 3.18366723,6.26166965 L4.24488964,6.26166965 L4.24488964,7.30528125 C4.24488964,9.03162357 5.67308276,10.4361161 7.42855687,10.4361161 C9.18403099,10.4361161 10.6122241,9.03162357 10.6122241,7.30528125 L10.6122241,6.26166965 L14.9986101,6.26166965 L14.9986101,7.30528125 C14.9986101,9.03162357 16.4268032,10.4361161 18.1822773,10.4361161 C19.9377514,10.4361161 21.3659445,9.03162357 21.3659445,7.30528125 L21.3659445,6.26166965 L25.6108342,6.26166965 L25.6108342,7.30528125 C25.6108342,9.03162357 27.0390273,10.4361161 28.7945014,10.4361161 C30.5499755,10.4361161 31.9781686,9.03162357 31.9781686,7.30528125 L31.9781686,6.26166965 L33.039391,6.26166965 C33.6245491,6.26166965 34.1006135,6.72983381 34.1006135,7.30528125 L34.1006135,12.6624875 Z" id="Shape" fill="url(#linearGradient-2)"></path>
                    <path d="M30.9169462,17.8109714 L5.30611205,17.8109714 C4.72003429,17.8109714 4.24488964,18.2470805 4.24488964,18.7850089 L4.24488964,30.4734589 C4.24488964,31.0113874 4.72003429,31.4474964 5.30611205,31.4474964 L30.9169462,31.4474964 C31.503024,31.4474964 31.9781686,31.0113874 31.9781686,30.4734589 L31.9781686,18.7850089 C31.9781686,18.2470805 31.503024,17.8109714 30.9169462,17.8109714 Z M10.6122241,29.4994214 L6.36733446,29.4994214 L6.36733446,25.6032714 L10.6122241,25.6032714 L10.6122241,29.4994214 Z M10.6122241,23.6551964 L6.36733446,23.6551964 L6.36733446,19.7590464 L10.6122241,19.7590464 L10.6122241,23.6551964 Z M17.1210549,29.4994214 L12.7346689,29.4994214 L12.7346689,25.6032714 L17.1210549,25.6032714 L17.1210549,29.4994214 Z M17.1210549,23.6551964 L12.7346689,23.6551964 L12.7346689,19.7590464 L17.1210549,19.7590464 L17.1210549,23.6551964 Z M23.4883894,29.4994214 L19.2434997,29.4994214 L19.2434997,25.6032714 L23.4883894,25.6032714 L23.4883894,29.4994214 Z M23.4883894,23.6551964 L19.2434997,23.6551964 L19.2434997,19.7590464 L23.4883894,19.7590464 L23.4883894,23.6551964 Z M29.8557238,29.4994214 L25.6108342,29.4994214 L25.6108342,25.6032714 L29.8557238,25.6032714 L29.8557238,29.4994214 Z M29.8557238,23.6551964 L25.6108342,23.6551964 L25.6108342,19.7590464 L29.8557238,19.7590464 L29.8557238,23.6551964 Z" id="Shape" fill="url(#linearGradient-3)"></path>
                </g>
            </g>
        </g>
    </g>
</svg>