<?xml version="1.0" encoding="UTF-8"?>
<svg width="55px" height="56px" viewBox="0 0 55 56" version="1.1" xmlns="http://www.w3.org/2000/svg" xmlns:xlink="http://www.w3.org/1999/xlink">
    <!-- Generator: Sketch 53.2 (72643) - https://sketchapp.com -->
    <title>download</title>
    <desc>Created with Sketch.</desc>
    <g id="Page-1" stroke="none" stroke-width="1" fill="none" fill-rule="evenodd">
        <g id="empathy-map-resource" transform="translate(-235.000000, -624.000000)">
            <g id="download" transform="translate(234.000000, 624.000000)">
                <g id="download-icon" transform="translate(11.000000, 0.000000)" fill="#01ADB5">
                    <path d="M33.5157895,15.608238 C32.9665904,15.608238 32.5272311,16.0475973 32.5272311,16.5967963 L32.5272311,25.589016 C32.5272311,28.0347826 30.5354691,30.019222 28.0970252,30.019222 L6.40732265,30.019222 C3.96155606,30.019222 1.9771167,28.02746 1.9771167,25.589016 L1.9771167,16.4503432 C1.9771167,15.9011442 1.53775744,15.4617849 0.988558352,15.4617849 C0.439359268,15.4617849 0,15.9011442 0,16.4503432 L0,25.589016 C0,29.1258581 2.8778032,31.9963387 6.40732265,31.9963387 L28.0970252,31.9963387 C31.6338673,31.9963387 34.5043478,29.1185355 34.5043478,25.589016 L34.5043478,16.5967963 C34.5043478,16.0549199 34.0649886,15.608238 33.5157895,15.608238 Z" id="Path"></path>
                    <path d="M16.5565217,24.1464531 C16.7469108,24.3368421 17.0032037,24.4393593 17.2521739,24.4393593 C17.5011442,24.4393593 17.7574371,24.3441648 17.9478261,24.1464531 L24.2306636,17.8636156 C24.6187643,17.4755149 24.6187643,16.8530892 24.2306636,16.4649886 C23.8425629,16.0768879 23.2201373,16.0768879 22.8320366,16.4649886 L18.2407323,21.0636156 L18.2407323,1.00686499 C18.2407323,0.457665904 17.801373,0.0183066362 17.2521739,0.0183066362 C16.7029748,0.0183066362 16.2636156,0.457665904 16.2636156,1.00686499 L16.2636156,21.0636156 L11.6649886,16.4649886 C11.2768879,16.0768879 10.6544622,16.0768879 10.2663616,16.4649886 C9.87826087,16.8530892 9.87826087,17.4755149 10.2663616,17.8636156 L16.5565217,24.1464531 Z" id="Path"></path>
                </g>
                <text id="Download" font-family="Helvetica" font-size="12" font-weight="normal" fill="#3B3F3E">
                    <tspan x="0" y="53">Download</tspan>
                </text>
            </g>
        </g>
    </g>
</svg>