<?xml version="1.0" encoding="UTF-8"?>
<svg width="16px" height="16px" viewBox="0 0 16 16" version="1.1" xmlns="http://www.w3.org/2000/svg" xmlns:xlink="http://www.w3.org/1999/xlink">
    <!-- Generator: Sketch 53.2 (72643) - https://sketchapp.com -->
    <title>edit icon</title>
    <desc>Created with Sketch.</desc>
    <g id="Page-1" stroke="none" stroke-width="1" fill="none" fill-rule="evenodd">
        <g id="generic-dash" transform="translate(-287.000000, -159.000000)" fill="#3B3F3E" fill-rule="nonzero">
            <g id="Top-of-page" transform="translate(-0.500000, 20.000000)">
                <g id="profile" transform="translate(83.000000, 72.039062)">
                    <g id="edit" transform="translate(203.971680, 67.058594)">
                        <g id="edit-icon" transform="translate(0.469312, 0.643172)">
                            <path d="M0.0165568215,10.755261 L3.73034936e-14,13.7050162 C3.73034936e-14,13.8714126 0.066227286,14.037809 0.198681858,14.1588246 C0.33113643,14.2798402 0.496704645,14.340348 0.678829682,14.340348 L3.89085305,14.3252211 C4.07297809,14.3252211 4.23854631,14.2647133 4.37100088,14.1436977 L15.4640713,4.00864159 C15.7289804,3.7666104 15.7289804,3.37330972 15.4640713,3.11615158 L12.2851616,0.181523393 C12.0202524,-0.0605077976 11.5897751,-0.0605077976 11.3083091,0.181523393 L9.08969501,2.22366156 L0.21523868,10.3165795 C0.099340929,10.4375951 0.0165568215,10.5888646 0.0165568215,10.755261 Z M11.8050137,1.51269494 L14.0401846,3.55483311 L12.7818662,4.70448126 L10.5466953,2.6623431 L11.8050137,1.51269494 Z M1.39077301,11.0275461 L9.56984283,3.55483311 L11.8050137,5.59697128 L3.62594391,13.0545573 L1.37421618,13.0696843 L1.39077301,11.0275461 L1.39077301,11.0275461 Z" id="Shape"></path>
                        </g>
                    </g>
                </g>
            </g>
        </g>
    </g>
</svg>