<?xml version="1.0" encoding="UTF-8"?>
<svg width="51px" height="22px" viewBox="0 0 51 22" version="1.1" xmlns="http://www.w3.org/2000/svg" xmlns:xlink="http://www.w3.org/1999/xlink">
    <!-- Generator: Sketch 53.2 (72643) - https://sketchapp.com -->
    <title>camera edit </title>
    <desc>Created with Sketch.</desc>
    <g id="Page-1" stroke="none" stroke-width="1" fill="none" fill-rule="evenodd">
        <g id="generic-dash" transform="translate(-349.000000, -194.000000)">
            <g id="camera-edit-" transform="translate(349.000000, 194.000000)">
                <rect id="white-rectangle" fill="#FFFFFF" x="0" y="0.549267386" width="51" height="21" rx="4"></rect>
                <g id="photo-icon" transform="translate(5.571796, 5.558229)" fill="#3B3F3E" stroke="#3B3F3E" stroke-width="0.4">
                    <circle id="Oval" cx="11.3574882" cy="3.34041651" r="1"></circle>
                    <path d="M3.86019964,1.00210094 C3.94238315,1.00210094 4.00852383,0.942636769 4.00852383,0.868498687 L4.00852383,0.467643902 C4.00852383,0.394154259 3.94238315,0.334041651 3.86019964,0.334041651 L2.82065741,0.334041651 C2.73849791,0.334041651 2.67235723,0.393505821 2.67235723,0.467643902 L2.67235723,0.868498687 C2.67235723,0.941988331 2.73849791,1.00210094 2.82065741,1.00210094 L3.86019964,1.00210094 Z" id="Path"></path>
                    <path d="M7.68300602,8.68513097 C9.34319951,8.68513097 10.6894049,7.33890157 10.6894049,5.67873209 C10.6894049,4.01851458 9.34319951,2.6723092 7.68300602,2.6723092 C6.02281252,2.6723092 4.67660714,4.01851458 4.67660714,5.67873209 C4.67660714,7.33890157 6.02281252,8.68513097 7.68300602,8.68513097 Z M7.68300602,3.34041651 C8.97440638,3.34041651 10.0212976,4.38730771 10.0212976,5.67873209 C10.0212976,6.97010844 8.97440638,8.01702365 7.68300602,8.01702365 C6.39160565,8.01702365 5.34469044,6.97010844 5.34469044,5.67873209 C5.34469044,4.38730771 6.39160565,3.34041651 7.68300602,3.34041651 Z" id="Shape" fill-rule="nonzero"></path>
                    <path d="M2.22044605e-14,2.67233321 L2.22044605e-14,9.35323829 C2.22044605e-14,10.6894289 1.33616661,10.6894289 1.33616661,10.6894289 L13.3617381,10.6894289 C13.3617381,10.6894289 14.6979287,10.6894289 14.6979287,9.35323829 L14.6979287,2.67233321 C14.6979287,1.33616661 13.3617381,1.33616661 13.3617381,1.33616661 L10.8230071,1.33616661 L10.1134959,0.154328252 C10.0627256,0.0688064801 9.93981053,4.4408921e-15 9.84360154,4.4408921e-15 L5.52241049,4.4408921e-15 C5.42420816,4.4408921e-15 5.30194156,0.0714962971 5.25249216,0.154328252 L4.54298087,1.33616661 L1.33616661,1.33616661 C1.33616661,1.33614259 2.22044605e-14,1.33614259 2.22044605e-14,2.67233321 Z M4.99328506,2.00424991 L5.73752381,0.668059287 L9.56434089,0.668059287 L10.4107927,2.00424991 L13.3543891,2.00424991 C13.3543891,2.00424991 14.0298214,2.00424991 14.0298214,2.68436534 L14.0298214,9.34050969 C14.0298214,10.0213216 13.3543891,10.0213216 13.3543891,10.0213216 L1.34351557,10.0213216 C1.34351557,10.0213216 0.668083303,10.0213216 0.668083303,9.34050969 L0.668083303,2.68436534 C0.668083303,2.00424991 1.34351557,2.00424991 1.34351557,2.00424991 L4.99328506,2.00424991 Z" id="Shape" fill-rule="nonzero"></path>
                </g>
                <text id="edit" font-family="Helvetica" font-size="10" font-weight="normal" fill="#3B3F3E">
                    <tspan x="25.5" y="13.8826007">edit</tspan>
                </text>
            </g>
        </g>
    </g>
</svg>