<?xml version="1.0" encoding="UTF-8"?>
<svg width="24px" height="19px" viewBox="0 0 24 19" version="1.1" xmlns="http://www.w3.org/2000/svg" xmlns:xlink="http://www.w3.org/1999/xlink">
    <!-- Generator: Sketch 53.2 (72643) - https://sketchapp.com -->
    <title>event icon</title>
    <desc>Created with Sketch.</desc>
    <g id="Page-1" stroke="none" stroke-width="1" fill="none" fill-rule="evenodd">
        <g id="generic-dash" transform="translate(-286.000000, -233.000000)" fill="#3B3F3E">
            <g id="Top-of-page" transform="translate(-0.500000, 20.000000)">
                <g id="profile" transform="translate(83.000000, 72.039062)">
                    <g id="events" transform="translate(214.236544, 166.430609) rotate(45.000000) translate(-214.236544, -166.430609) translate(195.236544, 144.430609)">
                        <g id="event-icon" transform="translate(0.277019, 0.269520)">
                            <path d="M12.6642609,9.42918584 C13.3655381,9.13238062 14.0637762,8.91586537 14.7496746,8.78325312 C14.9475129,8.74501503 15.0739494,8.56747386 15.0320968,8.38672109 C14.9902443,8.20596832 14.7961408,8.09041768 14.5980461,8.12868923 C13.8040927,8.28217687 12.997763,8.53887056 12.1913235,8.89361836 C11.740832,8.40274562 11.2251267,7.88949206 10.6687405,7.38115626 C10.0774956,6.84100557 9.48009905,6.34247183 8.91258151,5.91325509 C9.40368063,5.34590617 9.80452032,4.71067878 10.1077773,4.0154681 C10.5806049,2.93152021 10.820369,1.6931145 10.820369,0.334541494 C10.820369,0.149774227 10.6564008,3.19744231e-14 10.454205,3.19744231e-14 C10.2520093,3.19744231e-14 10.0880411,0.149774227 10.0880411,0.334541494 C10.0880411,2.42783453 9.50056761,4.16029112 8.3404137,5.49718584 C8.12148426,5.34460146 7.90921901,5.20436167 7.70651064,5.07947733 C6.62131049,4.41076233 5.97495785,4.25402964 5.61370048,4.57224551 C5.61113733,4.57442003 5.60846434,4.5765611 5.60597442,4.57880253 C5.60560826,4.57913707 5.60524209,4.57943815 5.60487593,4.57973924 C5.60465623,4.57993997 5.60447315,4.58017415 5.60425345,4.58034142 C5.51172382,4.66508078 5.45460224,4.76755084 5.43296195,4.88982575 L0.0284916372,16.6646493 C-0.0289961057,16.7899016 0.00212783151,16.9345239 0.107253507,17.0305708 C0.17733729,17.0945686 0.271002033,17.128558 0.366277897,17.128558 C0.413952446,17.128558 0.462066391,17.1200606 0.507800271,17.1025306 C0.50882553,17.1021292 0.507800271,17.1025306 0.50882553,17.1021292 L13.3956368,12.1646982 C13.5178257,12.1466329 13.6216332,12.1010015 13.7094027,12.0288409 C13.715774,12.02399 13.7217424,12.0188381 13.7277109,12.0136862 C13.7300544,12.0115785 13.7325809,12.0098389 13.7348877,12.0076979 C13.7352539,12.0073633 13.7355468,12.0069953 13.7358764,12.0066942 C13.7384029,12.0044194 13.7407464,12.0019437 13.743163,11.9995685 C14.0914216,11.6694764 13.9198738,11.0789772 13.1879486,10.0875635 C13.0332443,9.87800671 12.857449,9.65741004 12.6642609,9.42918584 Z M2.90423359,14.7452509 C2.82781517,15.1805898 2.65787847,15.4667565 2.57611406,15.5845152 L1.04997926,16.1692268 L2.59991471,12.7924318 C2.90317171,13.4869734 3.00829739,14.1523096 2.90423359,14.7452509 Z M5.15746018,13.6132963 C5.00982287,14.3822065 4.61824712,14.752845 4.50689666,14.844777 L3.54201799,15.2144454 C3.75651684,14.5167925 3.81290609,13.4093598 2.98394748,11.9557101 L4.08126766,9.56511005 C5.21978129,11.5372322 5.30520734,12.8439512 5.15746018,13.6132963 Z M6.46360367,14.0950361 L5.67437385,14.3974616 C5.74958393,14.223868 5.81589622,14.026154 5.86393694,13.8021115 C6.15701458,12.4354092 5.67858474,10.7455732 4.4426715,8.77773318 L4.83886091,7.91458268 C5.15244373,8.25932769 5.50974653,8.74725645 5.65445453,9.05490081 C5.71402941,9.18159168 5.8491073,9.25746569 5.99103245,9.25746569 C6.03925624,9.25746569 6.08832222,9.24866725 6.13544752,9.23020056 C6.32123912,9.15723706 6.40710457,8.96052666 6.32728082,8.79074685 C6.11256227,8.33429843 5.56811307,7.62406684 5.15163817,7.23315511 L5.75701706,5.91422526 C5.86305814,6.0918668 5.99440116,6.28650304 6.1519249,6.4998736 C6.26038266,6.64680423 6.37920287,6.79912097 6.5069941,6.95568639 C7.75953118,8.69215747 7.73119009,10.469543 7.48633624,11.6554591 C7.22595705,12.9168478 6.66839917,13.8403496 6.46360367,14.0950361 Z M9.28500688,13.014099 L7.54668007,13.6801042 C7.79768547,13.1770877 8.05374393,12.5167362 8.20592167,11.7795071 C8.37589499,10.9560667 8.45062905,9.87322276 8.13613082,8.70389988 C8.30958269,8.87130444 8.48801439,9.039077 8.67105976,9.20631429 C9.21876782,9.70668801 9.77160218,10.1709981 10.3012217,10.5779344 C10.2487138,12.1574052 9.45578576,12.8771377 9.28500688,13.014099 Z M10.5471741,12.5305193 C10.7431817,12.1600146 10.9162674,11.6825235 10.9934547,11.0861364 C11.2144713,11.2402931 11.4287871,11.381938 11.6333263,11.5079598 C11.8669755,11.6519464 12.0799731,11.7718796 12.2744794,11.8687628 L10.5471741,12.5305193 Z M11.835046,10.821949 C11.0390055,10.3066547 10.0992457,9.56484241 9.18892546,8.7331388 C8.27864184,7.90146865 7.46667324,7.0428679 6.9027075,6.31557469 C6.35730627,5.61226811 6.21032805,5.25313782 6.17162452,5.09757602 C6.34189076,5.13297051 6.73496778,5.26725547 7.50475429,5.76552157 C7.61892422,5.83942179 7.73624315,5.91840703 7.85575907,6.00120605 C7.83009098,6.02535995 7.80475243,6.04974802 7.77864494,6.07360083 C7.63565791,6.20423928 7.63565791,6.41607096 7.77864494,6.54674287 C7.85015676,6.61204537 7.94385812,6.64473007 8.03755948,6.64473007 C8.13126084,6.64473007 8.22499882,6.61204537 8.29647402,6.54674287 C8.34246422,6.50472446 8.3877587,6.46213732 8.43254055,6.41914874 C8.98797467,6.83863032 9.57526506,7.32839907 10.1509114,7.85433175 C10.6459285,8.3065984 11.1113595,8.76665986 11.5241728,9.20935862 C11.4580436,9.24291313 11.391951,9.27703637 11.3258584,9.31189559 C11.1507221,9.40429595 11.0907079,9.60890153 11.1918424,9.76887927 C11.2596559,9.87620018 11.3827236,9.93621693 11.5093065,9.93621693 C11.5714079,9.93621693 11.6343881,9.92173128 11.6920223,9.89132146 C11.7936695,9.837661 11.8953898,9.78617507 11.9970735,9.73589348 C12.1561718,9.92049348 12.3038091,10.099975 12.4371294,10.2719293 C12.9825672,10.9752359 13.1295088,11.3343662 13.1682124,11.489928 C12.9978729,11.4545 12.6047959,11.3202151 11.835046,10.821949 Z" id="Shape" fill-rule="nonzero"></path>
                            <path d="M6.62332439,9.65265956 C6.54031502,9.484151 6.32358257,9.40901298 6.13914577,9.48485354 C5.96045776,9.55831885 5.8777047,9.7465319 5.94822788,9.9114274 C6.00366511,10.0440062 6.14225817,10.1265376 6.29022503,10.1265376 C6.3303566,10.1265376 6.37114726,10.1204489 6.4112056,10.1076694 C6.60205026,10.0466491 6.70267212,9.85579315 6.6358472,9.68139667 C6.63236864,9.6723306 6.62764512,9.66142454 6.62332439,9.65265956 Z" id="Path"></path>
                            <path d="M13.673775,5.17508929 C13.7452868,5.24039179 13.8389881,5.27307649 13.9326895,5.27307649 C14.0264275,5.27307649 14.1200922,5.24039179 14.191604,5.17508929 C15.0097242,4.42762322 16.3352011,4.08505273 17.3029359,4.01369503 C17.5045092,3.99884139 17.6547096,3.83745857 17.6384519,3.65332694 C17.6221576,3.46916184 17.4459229,3.33246819 17.2440201,3.34678656 C16.1465169,3.42771215 14.632319,3.82621798 13.673775,4.7019807 C13.5307879,4.83261916 13.5307879,5.04445083 13.673775,5.17508929 Z" id="Path"></path>
                            <path d="M18.4762351,3.41111889 C18.4658727,3.40857638 18.4553271,3.40606732 18.4446718,3.40362516 C18.2484445,3.35893042 18.0497639,3.46815822 18.000881,3.64743901 C17.9520348,3.82671979 18.0715141,4.00827546 18.2677413,4.0529033 L18.2864523,4.05731924 C18.3182353,4.06511406 18.3501648,4.06886093 18.3815817,4.06886093 C18.5432065,4.06886093 18.6911367,3.97033846 18.7350032,3.82093222 C18.7874012,3.64248779 18.6715836,3.45902524 18.4762351,3.41111889 Z" id="Path"></path>
                            <path d="M2.69145571,2.79750288 L3.05761967,2.79750288 L3.05761967,3.13204438 C3.05761967,3.31677819 3.22155128,3.46658587 3.42378364,3.46658587 C3.626016,3.46658587 3.78994761,3.31677819 3.78994761,3.13204438 L3.78994761,2.79750288 L4.15611158,2.79750288 C4.35834394,2.79750288 4.52227554,2.6476952 4.52227554,2.46296139 C4.52227554,2.27822758 4.35834394,2.1284199 4.15611158,2.1284199 L3.78994761,2.1284199 L3.78994761,1.7938784 C3.78994761,1.60914459 3.626016,1.45933691 3.42378364,1.45933691 C3.22155128,1.45933691 3.05761967,1.60914459 3.05761967,1.7938784 L3.05761967,2.1284199 L2.69145571,2.1284199 C2.48922335,2.1284199 2.32529174,2.27822758 2.32529174,2.46296139 C2.32529174,2.64772866 2.48922335,2.79750288 2.69145571,2.79750288 Z" id="Path"></path>
                            <path d="M11.2596193,6.04252193 L11.6258199,6.04252193 L11.6258199,6.37702997 C11.6258199,6.56179723 11.7897881,6.71157146 11.9919839,6.71157146 C12.1942162,6.71157146 12.3581478,6.56179723 12.3581478,6.37702997 L12.3581478,6.04252193 L12.7242752,6.04252193 C12.9264709,6.04252193 13.0904391,5.89271425 13.0904391,5.70798043 C13.0904391,5.52324662 12.9264709,5.37343894 12.7242752,5.37343894 L12.3581478,5.37343894 L12.3581478,5.03886399 C12.3581478,4.85413018 12.1942162,4.70432249 11.9919839,4.70432249 C11.7897881,4.70432249 11.6258199,4.85413018 11.6258199,5.03886399 L11.6258199,5.37343894 L11.2596193,5.37343894 C11.0574236,5.37343894 10.8934553,5.52324662 10.8934553,5.70798043 C10.8934553,5.8927477 11.0574236,6.04252193 11.2596193,6.04252193 Z" id="Path"></path>
                            <path d="M16.3492618,13.9710884 L15.9830979,13.9710884 L15.9830979,13.6365469 C15.9830979,13.4518131 15.8191297,13.3020054 15.6169339,13.3020054 C15.4147382,13.3020054 15.2507699,13.4518131 15.2507699,13.6365469 L15.2507699,13.9710884 L14.884606,13.9710884 C14.6824102,13.9710884 14.518442,14.1208961 14.518442,14.3056299 C14.518442,14.4903637 14.6824102,14.6401714 14.884606,14.6401714 L15.2507699,14.6401714 L15.2507699,14.9747129 C15.2507699,15.1594467 15.4147382,15.3092544 15.6169339,15.3092544 C15.8191297,15.3092544 15.9830979,15.1594467 15.9830979,14.9747129 L15.9830979,14.6401714 L16.3492618,14.6401714 C16.5514576,14.6401714 16.7154258,14.4903637 16.7154258,14.3056299 C16.7154258,14.1208961 16.5514942,13.9710884 16.3492618,13.9710884 Z" id="Path"></path>
                            <path d="M14.2792637,2.00731587 C14.8849721,2.00731587 15.3777556,1.55708993 15.3777556,1.00369139 C15.3777556,0.450292851 14.8849721,6.69082991e-05 14.2792637,6.69082991e-05 C13.6735553,6.69082991e-05 13.1807718,0.450292851 13.1807718,1.00369139 C13.1807718,1.55708993 13.6735553,2.00731587 14.2792637,2.00731587 Z M14.2792637,0.669149897 C14.4811665,0.669149897 14.6454277,0.819225212 14.6454277,1.00369139 C14.6454277,1.18815757 14.4811665,1.33823289 14.2792637,1.33823289 C14.0773609,1.33823289 13.9130997,1.18815757 13.9130997,1.00369139 C13.9130997,0.819225212 14.0773609,0.669149897 14.2792637,0.669149897 Z" id="Shape" fill-rule="nonzero"></path>
                            <path d="M16.5689602,5.80830943 C15.9632518,5.80830943 15.4704683,6.25853537 15.4704683,6.81193391 C15.4704683,7.36533245 15.9632518,7.81555839 16.5689602,7.81555839 C17.1746687,7.81555839 17.6674521,7.36533245 17.6674521,6.81193391 C17.6674521,6.25853537 17.174632,5.80830943 16.5689602,5.80830943 Z M16.5689602,7.1464754 C16.3670574,7.1464754 16.2027963,6.99640009 16.2027963,6.81193391 C16.2027963,6.62746773 16.3670574,6.47739242 16.5689602,6.47739242 C16.770863,6.47739242 16.9351242,6.62746773 16.9351242,6.81193391 C16.9351242,6.99640009 16.770863,7.1464754 16.5689602,7.1464754 Z" id="Shape" fill-rule="nonzero"></path>
                            <path d="M7.26846868,3.19891922 C7.87417712,3.19891922 8.36696059,2.74869328 8.36696059,2.19529474 C8.36696059,1.6418962 7.87417712,1.19167026 7.26846868,1.19167026 C6.66276025,1.19167026 6.16997678,1.6418962 6.16997678,2.19529474 C6.16997678,2.74869328 6.66276025,3.19891922 7.26846868,3.19891922 Z M7.26846868,1.86075325 C7.4703715,1.86075325 7.63463265,2.01082856 7.63463265,2.19529474 C7.63463265,2.37976092 7.4703715,2.52983623 7.26846868,2.52983623 C7.06656587,2.52983623 6.90230472,2.37976092 6.90230472,2.19529474 C6.90230472,2.01086201 7.06656587,1.86075325 7.26846868,1.86075325 Z" id="Shape" fill-rule="nonzero"></path>
                            <path d="M16.4477233,9.83749373 C16.4477233,9.65322828 16.2832425,9.50295224 16.0815594,9.50295224 C15.8798763,9.50295224 15.7153954,9.65322828 15.7153954,9.83749373 C15.7153954,10.0217592 15.8798763,10.1720352 16.0815594,10.1720352 C16.2832425,10.1720352 16.4477233,10.0217257 16.4477233,9.83749373 Z" id="Path"></path>
                            <path d="M12.2734175,3.1801849 C12.4751006,3.1801849 12.6395815,3.02990886 12.6395815,2.84564341 C12.6395815,2.66137795 12.4751006,2.51110191 12.2734175,2.51110191 C12.0717344,2.51110191 11.9072535,2.66137795 11.9072535,2.84564341 C11.9072901,3.02987541 12.071771,3.1801849 12.2734175,3.1801849 Z" id="Path"></path>
                            <path d="M17.1800147,12.01198 C16.9783315,12.01198 16.8138141,12.1622895 16.8138141,12.3465549 C16.8138141,12.5308204 16.9783315,12.6810964 17.1800147,12.6810964 C17.3816611,12.6810964 17.5461786,12.5308204 17.5461786,12.3465549 C17.5461786,12.1622895 17.3816611,12.01198 17.1800147,12.01198 Z" id="Path"></path>
                            <path d="M5.09671358,1.00369139 C5.29839669,1.00369139 5.46287754,0.853415352 5.46287754,0.669149897 C5.46287754,0.484884442 5.29839669,0.334608403 5.09671358,0.334608403 C4.89503046,0.334608403 4.73054961,0.484884442 4.73054961,0.669149897 C4.73054961,0.853415352 4.89503046,1.00369139 5.09671358,1.00369139 Z" id="Path"></path>
                        </g>
                    </g>
                </g>
            </g>
        </g>
    </g>
</svg>