<?xml version="1.0" encoding="UTF-8"?>
<svg width="152px" height="41px" viewBox="0 0 152 41" version="1.1" xmlns="http://www.w3.org/2000/svg" xmlns:xlink="http://www.w3.org/1999/xlink">
    <!-- Generator: Sketch 53.2 (72643) - https://sketchapp.com -->
    <title>view lean canvas</title>
    <desc>Created with Sketch.</desc>
    <g id="Page-1" stroke="none" stroke-width="1" fill="none" fill-rule="evenodd">
        <g id="profile" transform="translate(-27.000000, -450.000000)">
            <g id="view-lean-canvas" transform="translate(27.500000, 450.425781)">
                <rect id="button" stroke="#FFFFFF" stroke-width="2" x="1" y="1" width="149" height="38" rx="19"></rect>
                <text id="View-Lean-Canvas" font-family="Helvetica" font-size="12" font-weight="normal" fill="#FFFFFF">
                    <tspan x="37.9697266" y="25.5">View Lean Canvas</tspan>
                </text>
                <g id="lean-canvas-icon" transform="translate(17.000000, 12.562500)" fill="#FFFFFF">
                    <g id="Shape">
                        <path d="M13.1786615,0 L1.26989243,0 C0.569687854,0 0,0.569687854 0,1.26989243 L0,13.1786615 C0,13.878866 0.569687854,14.4485539 1.26989243,14.4485539 L13.1786615,14.4485539 C13.878866,14.4485539 14.4485539,13.878866 14.4485539,13.1786615 L14.4485539,1.26989243 C14.4485539,0.569687854 13.878866,0 13.1786615,0 Z M13.6019589,1.26989243 L13.6019589,1.9118936 C13.2330067,2.18858025 12.2269035,2.94324027 11.6357201,3.38660027 C11.3296011,2.87886378 10.7803065,2.56800469 10.1873593,2.56800469 C9.25367967,2.56800469 8.49416937,3.327515 8.49416937,4.2611946 C8.49416937,4.69088562 8.66018134,5.09886063 8.94260014,5.40685363 C8.56538037,5.68960313 7.98169282,6.12734121 7.30893644,6.6317707 C6.82004989,5.97973828 6.20196945,5.15574123 5.74681441,4.54879436 C5.65774557,4.42996243 5.51278822,4.36657804 5.36507507,4.38168005 C5.21736186,4.39678209 5.08838842,4.48816583 5.02511425,4.62265097 C4.88644025,4.91730569 4.58660454,5.10778956 4.2611946,5.10778956 C3.7943548,5.10778956 3.41459965,4.7280344 3.41459965,4.2611946 C3.41459965,3.84836933 3.72093916,3.48999951 4.12726063,3.42749699 C4.27420219,3.40489908 4.39854583,3.30690131 4.45476501,3.16932963 C4.51098419,3.03175795 4.49092167,2.87467491 4.40185283,2.7556225 C4.40008909,2.75308711 3.55382484,1.62495523 2.9701373,0.846594954 L13.1786615,0.846594954 C13.4120262,0.846594954 13.6019589,1.03652766 13.6019589,1.26989243 Z M1.26989243,0.846594954 L1.9118936,0.846594954 C2.18858025,1.21554722 2.94324027,2.22165034 3.38660027,2.81283377 C2.87886378,3.11895283 2.56800469,3.66835768 2.56800469,4.2611946 C2.56800469,5.19487421 3.327515,5.95438451 4.2611946,5.95438451 C4.69132658,5.95438451 5.09897086,5.78837254 5.40641269,5.50595374 C5.87810278,6.1348371 6.28332192,6.6752028 6.63166047,7.13972767 C5.49790669,7.98996033 4.59685627,8.66569304 4.54879436,8.70173947 C4.43007266,8.79080831 4.36657804,8.93576566 4.38168005,9.08347881 C4.39678209,9.23119202 4.48827606,9.36027569 4.62265097,9.42343963 C4.91730569,9.56211363 5.10778956,9.86194934 5.10778956,10.1873593 C5.10778956,10.6541991 4.7280344,11.0339542 4.2611946,11.0339542 C3.84836933,11.0339542 3.48999951,10.7276147 3.42749699,10.3212933 C3.40489908,10.1743517 3.30690131,10.0500081 3.16932963,9.99378887 C3.03175795,9.93756969 2.87467491,9.95763221 2.7556225,10.0467011 C2.75308711,10.0484648 1.62495523,10.894729 0.846594954,11.4784166 L0.846594954,1.26989243 C0.846594954,1.03652766 1.03652766,0.846594954 1.26989243,0.846594954 Z M0.846594954,13.1786615 L0.846594954,12.5366603 C1.21554722,12.2599736 2.22165034,11.5053136 2.81283377,11.0619536 C3.11895283,11.5696901 3.66835768,11.8805492 4.2611946,11.8805492 C5.19487421,11.8805492 5.95438451,11.1210389 5.95438451,10.1873593 C5.95438451,9.7572273 5.78837254,9.34958302 5.50595374,9.04214119 C6.1348371,8.57056133 6.67509254,8.16534218 7.13961745,7.81700363 C8.42516308,9.53135842 8.68366114,9.87638997 8.69887338,9.89700368 C8.78739106,10.0166073 8.93234841,10.0807633 9.08028204,10.0664329 C9.22832593,10.0519923 9.35785056,9.96082898 9.42156563,9.8264541 C9.56145221,9.53146864 9.86205957,9.34076433 10.1873593,9.34076433 C10.6541991,9.34076433 11.0339542,9.72051948 11.0339542,10.1873593 C11.0339542,10.6001845 10.7276147,10.9585544 10.3212933,11.0210569 C10.1742415,11.0436548 10.0498978,11.1418731 9.99367864,11.279555 C9.93756969,11.4173471 9.95785269,11.5745404 10.047142,11.6934826 C10.0539765,11.702632 10.9124767,12.8472989 11.4784166,13.6019589 L1.26989243,13.6019589 C1.03652766,13.6019589 0.846594954,13.4120262 0.846594954,13.1786615 Z M13.1786615,13.6019589 L12.5366603,13.6019589 C12.2159904,13.1743623 11.4917549,12.208715 11.0619536,11.6357201 C11.5696901,11.3296011 11.8805492,10.7801962 11.8805492,10.1873593 C11.8805492,9.25367967 11.1210389,8.49416937 10.1873593,8.49416937 C9.75766826,8.49416937 9.34969325,8.66018134 9.04170026,8.94260014 C8.75895075,8.56538037 8.3213229,7.98180305 7.81689341,7.30915689 C9.53135842,6.0233908 9.87650019,5.76489274 9.89711391,5.74957028 C10.0166073,5.66105259 10.0808735,5.5163157 10.0664329,5.36827184 C10.051882,5.22022795 9.96082898,5.09070332 9.8264541,5.02698825 C9.53146864,4.88710167 9.34076433,4.58649431 9.34076433,4.2611946 C9.34076433,3.7943548 9.72051948,3.41459965 10.1873593,3.41459965 C10.6001845,3.41459965 10.9585544,3.72093916 11.0210569,4.12726063 C11.0436548,4.27420219 11.1416526,4.39843557 11.2792242,4.45476501 C11.4169062,4.51098419 11.573879,4.49092167 11.6929314,4.40185283 C11.6953565,4.40008909 12.8235987,3.55382484 13.6019589,2.9701373 L13.6019589,13.1786615 C13.6019589,13.4120262 13.4120262,13.6019589 13.1786615,13.6019589 L13.1786615,13.6019589 Z" fill-rule="nonzero"></path>
                    </g>
                </g>
            </g>
        </g>
    </g>
</svg>