<?xml version="1.0" encoding="UTF-8"?>
<svg width="19px" height="13px" viewBox="0 0 19 13" version="1.1" xmlns="http://www.w3.org/2000/svg" xmlns:xlink="http://www.w3.org/1999/xlink">
    <!-- Generator: Sketch 53.2 (72643) - https://sketchapp.com -->
    <title>message icon</title>
    <desc>Created with Sketch.</desc>
    <g id="Page-1" stroke="none" stroke-width="1" fill="none" fill-rule="evenodd">
        <g id="generic-dash" transform="translate(-197.000000, -238.000000)" fill="#3B3F3E" fill-rule="nonzero">
            <g id="Top-of-page" transform="translate(-0.500000, 20.000000)">
                <g id="profile" transform="translate(83.000000, 72.039062)">
                    <g id="messages" transform="translate(100.887121, 146.016468)">
                        <g id="message-icon" transform="translate(13.824297, 0.000000)">
                            <path d="M16.2536592,0 L1.56619842,0 C0.70367555,0 0,0.642205497 0,1.43093916 L0,10.9705336 C0,11.7565962 0.700543153,12.4014728 1.56619842,12.4014728 L16.2536592,12.4014728 C17.1140242,12.4014728 17.8198576,11.7614296 17.8198576,10.9705336 L17.8198576,1.43093916 C17.8198576,0.644876583 17.1193145,0 16.2536592,0 Z M16.0373846,0.953959443 L8.94313222,7.43557328 L1.78751966,0.953959443 L16.0373846,0.953959443 Z M1.04413228,10.7730004 L1.04413228,1.62392516 L6.07263855,6.17876351 L1.04413228,10.7730004 Z M1.78243822,11.4475133 L6.81411169,6.85038276 L8.57719866,8.44737446 C8.78129172,8.6322518 9.11064585,8.63164763 9.3139036,8.44591173 L11.0329978,6.8752811 L16.0374194,11.4475133 L1.78243822,11.4475133 Z M16.7757254,10.7729686 L11.7713037,6.20073638 L16.7757254,1.62847237 L16.7757254,10.7729686 Z" id="Shape"></path>
                        </g>
                    </g>
                </g>
            </g>
        </g>
    </g>
</svg>