<?xml version="1.0" encoding="UTF-8"?>
<svg width="16px" height="13px" viewBox="0 0 16 13" version="1.1" xmlns="http://www.w3.org/2000/svg" xmlns:xlink="http://www.w3.org/1999/xlink">
    <!-- Generator: Sketch 53.2 (72643) - https://sketchapp.com -->
    <title>message icon</title>
    <desc>Created with Sketch.</desc>
    <g id="Page-1" stroke="none" stroke-width="1" fill="none" fill-rule="evenodd">
        <g id="profile" transform="translate(-269.000000, -463.000000)" fill="#154355" fill-rule="nonzero">
            <g id="message-button" transform="translate(235.500000, 449.425781)">
                <g id="message-icon" transform="translate(33.519257, 14.211054)">
                    <g id="Shape">
                        <path d="M14.4266216,4.17443857e-14 L1.39014555,4.17443857e-14 C0.62457695,4.17443857e-14 7.10542736e-15,0.623897323 7.10542736e-15,1.39014555 L7.10542736e-15,10.6577826 C7.10542736e-15,11.4214359 0.621796659,12.0479281 1.39014555,12.0479281 L14.4266216,12.0479281 C15.1902749,12.0479281 15.8167672,11.4261315 15.8167672,10.6577826 L15.8167672,1.39014555 C15.8167672,0.626492262 15.1949705,4.17443857e-14 14.4266216,4.17443857e-14 Z M14.234658,0.926763701 L7.93785467,7.22359788 L1.58658856,0.926763701 L14.234658,0.926763701 Z M0.926763701,10.4658807 L0.926763701,1.57762985 L5.39002679,6.0026176 L0.926763701,10.4658807 Z M1.58207831,11.1211644 L6.04815259,6.65509014 L7.61305488,8.20655436 C7.79420629,8.38616116 8.08653846,8.38557421 8.26694846,8.20513332 L9.79280311,6.67927867 L14.2346888,11.1211644 L1.58207831,11.1211644 Z M14.8900035,10.4658498 L10.4481177,6.02396406 L14.8900035,1.58204742 L14.8900035,10.4658498 Z"></path>
                    </g>
                </g>
            </g>
        </g>
    </g>
</svg>