<?xml version="1.0" encoding="UTF-8"?>
<svg width="31px" height="37px" viewBox="0 0 31 37" version="1.1" xmlns="http://www.w3.org/2000/svg" xmlns:xlink="http://www.w3.org/1999/xlink">
    <!-- Generator: Sketch 53.2 (72643) - https://sketchapp.com -->
    <title>paper icon</title>
    <desc>Created with Sketch.</desc>
    <defs>
        <linearGradient x1="62.7880206%" y1="89.1014568%" x2="76.7369329%" y2="79.9263535%" id="linearGradient-1">
            <stop stop-color="#01ADB5" offset="0%"></stop>
            <stop stop-color="#5483C8" offset="100%"></stop>
        </linearGradient>
        <linearGradient x1="67.8876057%" y1="50.8544774%" x2="87.3990414%" y2="50.6539754%" id="linearGradient-2">
            <stop stop-color="#01ADB5" offset="0%"></stop>
            <stop stop-color="#5483C8" offset="100%"></stop>
        </linearGradient>
        <linearGradient x1="67.8876057%" y1="51.5190709%" x2="87.3990414%" y2="51.162623%" id="linearGradient-3">
            <stop stop-color="#01ADB5" offset="0%"></stop>
            <stop stop-color="#5483C8" offset="100%"></stop>
        </linearGradient>
        <linearGradient x1="67.8876057%" y1="53.4179095%" x2="87.3990414%" y2="52.6159017%" id="linearGradient-4">
            <stop stop-color="#01ADB5" offset="0%"></stop>
            <stop stop-color="#5483C8" offset="100%"></stop>
        </linearGradient>
    </defs>
    <g id="Page-1" stroke="none" stroke-width="1" fill="none" fill-rule="evenodd">
        <g id="generic-dash" transform="translate(-127.000000, -504.000000)">
            <g id="resources" transform="translate(85.000000, 471.098737)">
                <g id="paper-icon" transform="translate(41.913066, 32.445556)">
                    <path d="M29.8367238,11.984139 C28.7977914,10.7554107 27.1072538,10.7554807 26.0679661,11.9844191 C25.7483219,12.3627856 23.7074666,14.7782948 23.395698,15.1473475 L23.395698,6.82293399 C23.395698,5.98118579 23.1185112,5.18985844 22.6151812,4.59468224 L20.1029721,1.62356319 C19.5997012,1.02831695 18.9305091,0.700581381 18.2187412,0.700581381 L2.96641966,0.700581381 C1.49711043,0.700581381 0.301731175,2.11425617 0.301731175,3.85188497 L0.301731175,33.4041097 C0.301731175,35.1417385 1.49711043,36.5554133 2.96641966,36.5554133 L20.7310095,36.5554133 C22.2003188,36.5554133 23.395698,35.1417385 23.395698,33.4041097 L23.395698,24.0644162 L29.8366646,16.4407826 C30.8780841,15.2092531 30.8783209,13.2158085 29.8367238,11.984139 Z M18.0663803,2.80145044 C18.2341964,2.80145044 18.5575712,2.76706621 18.8468379,3.1090877 L21.3591062,6.08020675 C21.6409711,6.41361467 21.6192983,6.7789558 21.6192983,7.00318855 L18.0663803,7.00318855 L18.0663803,2.80145044 Z M21.619239,33.4041097 C21.619239,33.9833193 21.2208385,34.4545442 20.7310095,34.4545442 L2.96641966,34.4545442 C2.47664992,34.4545442 2.07819016,33.9833193 2.07819016,33.4041097 L2.07819016,3.85188497 C2.07819016,3.27267537 2.47664992,2.80145044 2.96641966,2.80145044 L16.2898621,2.80145044 L16.2898621,8.05362308 C16.2898621,8.63374306 16.687552,9.10405761 17.1780916,9.10405761 L21.619239,9.10405761 L21.619239,17.2500373 C21.619239,17.2500373 18.9987252,20.3517604 18.9986067,20.3518304 L17.7430647,21.8367247 C17.6455964,21.9519924 17.572051,22.0926105 17.5284685,22.2473045 L16.2722751,26.7039481 C16.1658652,27.0814042 16.2489443,27.4975864 16.4868714,27.7788927 C16.7250945,28.0606193 17.0771295,28.1583797 17.3958262,28.0326777 L21.1642879,26.5471532 C21.2950945,26.4956119 21.4139988,26.4087059 21.5114672,26.2933682 L21.619239,26.1659155 L21.619239,33.4041097 Z M19.6272364,22.5795219 L20.8833705,24.0650465 L20.4035489,24.6324912 L18.5193773,25.3752184 L19.1474148,23.1468966 L19.6272364,22.5795219 Z M22.1392678,22.5791718 L20.8831336,21.0936473 C21.5520297,20.3019698 24.522802,16.7856752 25.1528528,16.0399367 L26.408987,17.5254613 L22.1392678,22.5791718 Z M28.5802936,14.9555382 L27.6646474,16.0393065 L26.4085133,14.553782 L27.3244555,13.4696635 C27.6709834,13.0600641 28.2343578,13.0601341 28.5806489,13.4696635 C28.9268807,13.879333 28.9287164,14.5434177 28.5802936,14.9555382 Z" id="Shape" fill="url(#linearGradient-1)" fill-rule="nonzero"></path>
                    <path d="M17.1780916,11.2049267 L4.74287865,11.2049267 C4.2523391,11.2049267 3.85464915,11.6752412 3.85464915,12.2553612 C3.85464915,12.8354812 4.2523391,13.3057957 4.74287865,13.3057957 L17.1780916,13.3057957 C17.6686311,13.3057957 18.0663211,12.8354812 18.0663211,12.2553612 C18.0663211,11.6752412 17.6686311,11.2049267 17.1780916,11.2049267 Z" id="Path" fill="url(#linearGradient-2)"></path>
                    <path d="M13.6251736,15.4066648 L4.74287865,15.4066648 C4.2523391,15.4066648 3.85464915,15.8769793 3.85464915,16.4570993 C3.85464915,17.0372193 4.2523391,17.5075338 4.74287865,17.5075338 L13.6251736,17.5075338 C14.1157131,17.5075338 14.5134031,17.0372193 14.5134031,16.4570993 C14.5134031,15.8769793 14.1157131,15.4066648 13.6251736,15.4066648 Z" id="Path" fill="url(#linearGradient-3)"></path>
                    <path d="M13.6251736,19.6084029 L4.74287865,19.6084029 C4.2523391,19.6084029 3.85464915,20.0787174 3.85464915,20.6588374 C3.85464915,21.2389574 4.2523391,21.709272 4.74287865,21.709272 L13.6251736,21.709272 C14.1157131,21.709272 14.5134031,21.2389574 14.5134031,20.6588374 C14.5134031,20.0787174 14.1157131,19.6084029 13.6251736,19.6084029 Z" id="Path" fill="url(#linearGradient-3)"></path>
                    <path d="M18.9545506,23.810141 L10.0722556,23.810141 C9.58171607,23.810141 9.18402612,24.2804556 9.18402612,24.8605755 C9.18402612,25.4406955 9.58171607,25.9110101 10.0722556,25.9110101 L18.9545506,25.9110101 C19.4450901,25.9110101 19.84278,25.4406955 19.84278,24.8605755 C19.84278,24.2804556 19.4450901,23.810141 18.9545506,23.810141 Z" id="Path" fill="url(#linearGradient-3)"></path>
                    <path d="M17.1780916,30.2528061 L11.8487146,30.2528061 C11.3581751,30.2528061 10.9604851,30.7231207 10.9604851,31.3032406 C10.9604851,31.8833606 11.3581751,32.3536752 11.8487146,32.3536752 L17.1780916,32.3536752 C17.6686311,32.3536752 18.0663211,31.8833606 18.0663211,31.3032406 C18.0663211,30.7231207 17.6686311,30.2528061 17.1780916,30.2528061 Z" id="Path" fill="url(#linearGradient-4)"></path>
                </g>
            </g>
        </g>
    </g>
</svg>