<?xml version="1.0" encoding="UTF-8"?>
<svg width="20px" height="17px" viewBox="0 0 20 17" version="1.1" xmlns="http://www.w3.org/2000/svg" xmlns:xlink="http://www.w3.org/1999/xlink">
    <!-- Generator: Sketch 53.2 (72643) - https://sketchapp.com -->
    <title>private</title>
    <desc>Created with Sketch.</desc>
    <g id="Page-1" stroke="none" stroke-width="1" fill="none" fill-rule="evenodd">
        <g id="Canvas-main-page-Copy" transform="translate(-20.000000, -533.000000)" fill="#F7FFFF" fill-rule="nonzero">
            <g id="private" transform="translate(20.000000, 533.000000)">
                <path d="M19.8634569,8.08395383 C18.6494898,6.50833109 17.191482,5.13292629 15.5435067,4.0088201 L18.3620484,1.21659039 C18.6458068,0.945099999 18.653675,0.497149152 18.3796263,0.216039679 C18.1055776,-0.0650697934 17.6534056,-0.0728645693 17.3696472,0.198625818 C17.3637041,0.204306054 17.3578448,0.210110674 17.3520692,0.216039679 L14.2728298,3.26371415 C12.962142,2.54908246 11.4958056,2.16054604 10.0000052,2.13152294 C4.57147192,2.13152294 0.315095332,7.84053293 0.136511665,8.08391237 C-0.0455038883,8.33197697 -0.0455038883,8.66798157 0.136511665,8.91604617 C1.35047882,10.4916689 2.8084866,11.8670737 4.45646186,12.9911799 L1.63792026,15.7834096 C1.35416182,16.0549 1.34629359,16.5028508 1.6203423,16.7839603 C1.89439101,17.0650698 2.34656301,17.0728646 2.63032145,16.8013742 C2.63626448,16.7956939 2.64212379,16.7898893 2.64789941,16.7839603 L5.72713885,13.7362859 C7.03782661,14.4509175 8.50416299,14.839454 9.99996338,14.8684771 C15.4284967,14.8684771 19.6848733,9.15946707 19.8634569,8.91604617 C20.0455144,8.66802303 20.0455144,8.33201843 19.8634569,8.08395383 Z M5.49502612,11.9644669 C4.039948,11.0043827 2.73566363,9.83703211 1.62436012,8.50002073 C2.67577302,7.23834503 6.08572916,3.54673085 10.0000052,3.54673085 C11.1136525,3.56903718 12.2085499,3.83484733 13.2063919,4.32508898 L11.9663926,5.5535125 C10.3257834,4.47447504 8.11280235,4.91728465 7.02359684,6.54257835 C6.23016137,7.7265136 6.23016137,9.26623062 7.02359684,10.4501659 L5.49502612,11.9644669 Z M11.9285582,7.59072695 C12.0683448,7.8739095 12.1416281,8.18478838 12.1428418,8.50002073 C12.1428418,9.67242966 11.1834621,10.6228533 10.0000052,10.6228533 C9.68180237,10.6216509 9.36799399,10.5490517 9.08214294,10.4105701 L11.9285582,7.59072695 Z M8.0714523,9.40927305 C7.93166569,9.1260905 7.85838236,8.81521162 7.85716864,8.49997927 C7.85716864,7.32757034 8.81654839,6.37714667 10.0000052,6.37714667 C10.3182081,6.37834906 10.6320165,6.45094828 10.9178675,6.58942993 L8.0714523,9.40927305 Z M10.0000052,13.4532691 C8.88635799,13.4309628 7.79150242,13.1651527 6.79361857,12.674911 L8.03361784,11.4464875 C9.67422711,12.525525 11.8872081,12.0827154 12.9764136,10.4574216 C13.7698491,9.2734864 13.7698491,7.73376938 12.9764136,6.54983413 L14.5049843,5.03553306 C15.9600625,5.99561727 17.2643468,7.16300935 18.3756503,8.49997927 C17.3241956,9.76169643 13.9142395,13.4532691 10.0000052,13.4532691 Z" id="Shape"></path>
            </g>
        </g>
    </g>
</svg>