<?xml version="1.0" encoding="UTF-8"?>
<svg width="28px" height="32px" viewBox="0 0 28 32" version="1.1" xmlns="http://www.w3.org/2000/svg" xmlns:xlink="http://www.w3.org/1999/xlink">
    <!-- Generator: Sketch 53.2 (72643) - https://sketchapp.com -->
    <title>saved icon</title>
    <desc>Created with Sketch.</desc>
    <defs>
        <linearGradient x1="63.555907%" y1="89.1014568%" x2="78.3424142%" y2="79.9263535%" id="linearGradient-1">
            <stop stop-color="#01ADB5" offset="0%"></stop>
            <stop stop-color="#5483C8" offset="100%"></stop>
        </linearGradient>
    </defs>
    <g id="Page-1" stroke="none" stroke-width="1" fill="none" fill-rule="evenodd">
        <g id="save" transform="translate(-199.000000, -140.000000)" fill="url(#linearGradient-1)" stroke="url(#linearGradient-1)">
            <g id="saved" transform="translate(199.000000, 141.000000)">
                <g id="bookmark-(1)">
                    <path d="M26.6867605,3.24582269 C26.6867605,1.48749241 25.2523217,0.0439053591 23.4801165,0.00528980231 L23.4801165,0 L3.75391128,0 C1.9592595,0 0.499167587,1.44464501 0.499167587,3.2214896 L0.499167587,30.0820477 L10.6535403,23.3819841 L20.8079131,30.0820477 L20.8079131,13.2245058 L26.6867605,13.2245058 L26.6867605,3.24582269 Z M19.7390318,28.1057776 L10.6535403,22.1103157 L1.56804893,28.1057776 L1.56804893,3.2214896 C1.56804893,2.02863918 2.54874756,1.05796046 3.75391128,1.05796046 L20.8645638,1.05796046 C20.3392086,1.56683944 19.9656346,2.22806473 19.8143879,2.96810807 L19.8138535,2.96969501 C19.7898036,3.08712863 19.7710982,3.20667816 19.7588061,3.32781463 C19.7459795,3.45106702 19.7390318,3.57643534 19.7390318,3.70286161 L19.7390318,13.2245058 L19.7390318,28.1057776 Z M25.6178792,12.1665453 L20.8079131,12.1665453 L20.8079131,3.70286161 C20.8079131,3.52300834 20.8266185,3.34791588 20.8613572,3.17811323 C21.0681857,2.17834059 21.8543479,1.38010942 22.853752,1.13889444 C22.8729919,1.13413361 22.890094,1.12566993 22.9093338,1.12196707 C23.0392029,1.09340214 23.1754853,1.08335151 23.3117677,1.07488783 C23.3561262,1.07224293 23.398347,1.0621923 23.4432401,1.06166332 C24.6435938,1.08123559 25.6178792,2.05667514 25.6178792,3.24582269 L25.6178792,12.1665453 Z" id="Shape" fill-rule="nonzero"></path>
                </g>
            </g>
        </g>
    </g>
</svg>