<?xml version="1.0" encoding="UTF-8"?>
<svg width="18px" height="15px" viewBox="0 0 18 15" version="1.1" xmlns="http://www.w3.org/2000/svg" xmlns:xlink="http://www.w3.org/1999/xlink">
    <!-- Generator: Sketch 53.2 (72643) - https://sketchapp.com -->
    <title>download</title>
    <desc>Created with Sketch.</desc>
    <g id="Page-1" stroke="none" stroke-width="1" fill="none" fill-rule="evenodd">
        <g id="Canvas-main-page-Copy" transform="translate(-132.000000, -533.000000)" fill="#F7FFFF" fill-rule="nonzero">
            <g id="PDF" transform="translate(124.000000, 525.000000)">
                <g id="download" transform="translate(8.000000, 8.000000)">
                    <path d="M16.8108662,10.5 C16.5683892,10.5 16.3717324,10.6862331 16.3717324,10.9158578 L16.3717324,12.5048851 C16.3717324,13.4220759 15.5837578,14.1682844 14.615231,14.1682844 L2.63476904,14.1682844 C1.66624219,14.1682844 0.878267578,13.4220759 0.878267578,12.5048851 L0.878267578,10.9158578 C0.878267578,10.6862331 0.681678223,10.5 0.439133789,10.5 C0.196589355,10.5 0,10.6862012 0,10.9158578 L0,12.5048851 C0,13.8806872 1.18196191,15 2.63476904,15 L14.615231,15 C16.0680381,15 17.25,13.8806872 17.25,12.5048851 L17.25,10.9158578 C17.25,10.6862012 17.0534106,10.5 16.8108662,10.5 Z" id="Path"></path>
                    <path d="M13.8078699,12 L2.69216401,12 C2.44801376,12 2.25,12.1679358 2.25,12.375 C2.25,12.5820642 2.44794591,12.75 2.69216401,12.75 L13.807836,12.75 C14.0520541,12.75 14.25,12.5821218 14.25,12.375 C14.25,12.1679358 14.0520541,12 13.8078699,12 Z" id="Path"></path>
                    <path d="M13.3897506,6.16861925 C13.2301928,5.98148536 12.9560328,5.96520223 12.7773414,6.13242678 L9.43371445,9.26230823 L9.43371445,0.45446304 C9.43371445,0.203521618 9.2395497,0 8.99999664,0 C8.76051014,0 8.56627883,0.203451883 8.56627883,0.45446304 L8.56627883,9.26230823 L5.22265193,6.13246165 C5.04406029,5.9652371 4.76986704,5.98155509 4.61024265,6.16865411 C4.45071808,6.35585774 4.46612482,6.64316597 4.64474974,6.81035565 L8.27761058,10.2108787 C8.48348844,10.4036611 8.74167599,10.5 8.99996337,10.5 C9.25815091,10.5 9.51637174,10.4036611 9.72231615,10.2109833 L13.355177,6.81035565 C13.5338685,6.64306137 13.5493085,6.35575314 13.3897506,6.16861925 Z" id="Path"></path>
                </g>
            </g>
        </g>
    </g>
</svg>