<?xml version="1.0" encoding="UTF-8"?>
<svg width="38px" height="38px" viewBox="0 0 38 38" version="1.1" xmlns="http://www.w3.org/2000/svg" xmlns:xlink="http://www.w3.org/1999/xlink">
    <!-- Generator: Sketch 53.2 (72643) - https://sketchapp.com -->
    <title>Shape</title>
    <desc>Created with Sketch.</desc>
    <defs>
        <linearGradient x1="67.8876057%" y1="88.4069561%" x2="87.3990414%" y2="79.3948165%" id="linearGradient-1">
            <stop stop-color="#01ADB5" offset="0%"></stop>
            <stop stop-color="#5483C8" offset="100%"></stop>
        </linearGradient>
    </defs>
    <g id="Page-1" stroke="none" stroke-width="1" fill="none" fill-rule="evenodd">
        <g id="generic-dash" transform="translate(-253.000000, -503.000000)" fill="url(#linearGradient-1)" fill-rule="nonzero">
            <g id="lean-canvas" transform="translate(214.000000, 471.098737)">
                <g id="puzzle-icon" transform="translate(39.240448, 32.280822)">
                    <path d="M33.7097877,0 L3.24826648,0 C1.45720843,0 0,1.44420935 0,3.21929019 L0,33.4090782 C0,35.184159 1.45720843,36.6283684 3.24826648,36.6283684 L33.7097877,36.6283684 C35.5008457,36.6283684 36.9580542,35.184159 36.9580542,33.4090782 L36.9580542,3.21929019 C36.9580542,1.44420935 35.5008457,0 33.7097877,0 Z M34.7925432,3.21929019 L34.7925432,4.84682023 C33.8487977,5.54824547 31.2752797,7.4613757 29.7630875,8.58533271 C28.9800635,7.29817557 27.5750192,6.51012016 26.0583155,6.51012016 C23.6700501,6.51012016 21.7272936,8.43554629 21.7272936,10.8025071 C21.7272936,11.891812 22.1519367,12.9260649 22.8743377,13.7068545 C21.9094447,14.4236497 20.4164263,15.5333546 18.6955782,16.8121282 C17.445052,15.1591681 15.8640598,13.0702623 14.6998156,11.531598 C14.4719858,11.2303485 14.1011985,11.0696635 13.723362,11.1079484 C13.3455254,11.1462334 13.0156233,11.3778993 12.8537739,11.7188311 C12.4990587,12.465807 11.7321069,12.9487005 10.8997386,12.9487005 C9.70560593,12.9487005 8.73422765,11.9859875 8.73422765,10.8025071 C8.73422765,9.75595834 9.51781556,8.84745898 10.557148,8.68900952 C10.9330108,8.63172182 11.2510703,8.38328877 11.3948737,8.03453233 C11.5386771,7.68577589 11.4873591,7.28755642 11.2595293,6.98574797 C11.2550178,6.97932055 9.09035271,4.11940594 7.59733438,2.14619346 L33.7097877,2.14619346 C34.306713,2.14619346 34.7925432,2.62768975 34.7925432,3.21929019 Z M3.24826648,2.14619346 L4.89044565,2.14619346 C5.5981843,3.08152024 7.52853429,5.63208108 8.66260785,7.13078364 C7.36386523,7.90682266 6.56871666,9.29961279 6.56871666,10.8025071 C6.56871666,13.1694679 8.51147323,15.094894 10.8997386,15.094894 C11.9999762,15.094894 13.0426922,14.6740389 13.8290998,13.9580822 C15.035639,15.5523574 16.0721519,16.9222324 16.9631694,18.0998443 C14.0631329,20.2552596 11.7583299,21.9683021 11.635392,22.059683 C11.331713,22.2854805 11.1692996,22.6529602 11.2079292,23.0274262 C11.2465588,23.4018923 11.4805918,23.7291309 11.8243103,23.8892571 C12.5780096,24.240808 13.0652496,25.0009182 13.0652496,25.8258613 C13.0652496,27.0093417 12.0938713,27.9720548 10.8997386,27.9720548 C9.84377008,27.9720548 8.92709347,27.1954569 8.76721784,26.1653958 C8.7094145,25.7928859 8.45874534,25.4776637 8.10684981,25.3351431 C7.75495427,25.1926225 7.35315049,25.2434828 7.04862551,25.4692802 C7.04214024,25.4737514 4.15648403,27.6191065 2.16551099,29.0988063 L2.16551099,3.21929019 C2.16551099,2.62768975 2.65134114,2.14619346 3.24826648,2.14619346 Z M2.16551099,33.4090782 L2.16551099,31.7815482 C3.10925648,31.0801229 5.6827745,29.1669927 7.19496663,28.0430357 C7.97799064,29.3301928 9.38331704,30.1182482 10.8997386,30.1182482 C13.288004,30.1182482 15.2307606,28.1928221 15.2307606,25.8258613 C15.2307606,24.7354385 14.8061175,23.702024 14.0837165,22.9226317 C15.6923415,21.7271348 17.0742646,20.6998682 18.262476,19.816799 C21.5507819,24.1628408 22.2119958,25.0375265 22.2509073,25.089784 C22.4773273,25.3929897 22.8481147,25.5556309 23.2265152,25.5193022 C23.6051976,25.4826939 23.9365095,25.2515869 24.0994868,24.9109346 C24.4573036,24.1631202 25.2262292,23.6796678 26.0583155,23.6796678 C27.2524482,23.6796678 28.2238265,24.6423809 28.2238265,25.8258613 C28.2238265,26.87241 27.4402386,27.7809094 26.4009062,27.9393589 C26.0247614,27.9966466 25.706702,28.2456386 25.5628985,28.5946744 C25.419377,28.9439898 25.4712591,29.3424887 25.6996528,29.6440177 C25.7171348,29.6672122 27.9130982,32.5690446 29.3607198,34.4821749 L3.24826648,34.4821749 C2.65134114,34.4821749 2.16551099,34.0006786 2.16551099,33.4090782 Z M33.7097877,34.4821749 L32.0676085,34.4821749 C31.2473649,33.3981795 29.3948379,30.9501776 28.2954463,29.4975847 C29.5941889,28.7215457 30.3893375,27.3287556 30.3893375,25.8258613 C30.3893375,23.4589005 28.4465809,21.5334744 26.0583155,21.5334744 C24.959206,21.5334744 23.9156439,21.9543295 23.1278265,22.6702862 C22.4045797,21.7140006 21.2851684,20.2345802 19.9948848,18.5293624 C24.3803265,15.2698311 25.263167,14.6145155 25.3158949,14.5756717 C25.6215478,14.3512715 25.7859348,13.9843506 25.7489971,13.6090463 C25.7117774,13.2337419 25.4788722,12.9053854 25.1351537,12.743862 C24.3806084,12.3892371 23.8928046,11.6271708 23.8928046,10.8025071 C23.8928046,9.61902669 24.8641828,8.65631362 26.0583155,8.65631362 C27.1142841,8.65631362 28.0309607,9.43291151 28.1908363,10.4629726 C28.2486397,10.8354825 28.4993088,11.1504251 28.8512044,11.2932253 C29.2033819,11.4357459 29.6049037,11.3848856 29.9094287,11.1590882 C29.915632,11.1546169 32.8015701,9.00926186 34.7925432,7.52956206 L34.7925432,33.4090782 C34.7925432,34.0006786 34.306713,34.4821749 33.7097877,34.4821749 L33.7097877,34.4821749 Z" id="Shape"></path>
                </g>
            </g>
        </g>
    </g>
</svg>