<?xml version="1.0" encoding="UTF-8"?>
<svg width="45px" height="42px" viewBox="0 0 45 42" version="1.1" xmlns="http://www.w3.org/2000/svg" xmlns:xlink="http://www.w3.org/1999/xlink">
    <!-- Generator: Sketch 53.2 (72643) - https://sketchapp.com -->
    <title>talk icon</title>
    <desc>Created with Sketch.</desc>
    <defs>
        <filter x="-5.6%" y="-5.6%" width="111.2%" height="111.1%" filterUnits="objectBoundingBox" id="filter-1">
            <feOffset dx="0" dy="1" in="SourceAlpha" result="shadowOffsetOuter1"></feOffset>
            <feGaussianBlur stdDeviation="1" in="shadowOffsetOuter1" result="shadowBlurOuter1"></feGaussianBlur>
            <feColorMatrix values="0 0 0 0 0   0 0 0 0 0   0 0 0 0 0  0 0 0 0.5 0" type="matrix" in="shadowBlurOuter1" result="shadowMatrixOuter1"></feColorMatrix>
            <feMerge>
                <feMergeNode in="shadowMatrixOuter1"></feMergeNode>
                <feMergeNode in="SourceGraphic"></feMergeNode>
            </feMerge>
        </filter>
        <linearGradient x1="67.8876057%" y1="82.4143618%" x2="87.3990414%" y2="74.8083762%" id="linearGradient-2">
            <stop stop-color="#01ADB5" offset="0%"></stop>
            <stop stop-color="#5483C8" offset="100%"></stop>
        </linearGradient>
        <linearGradient x1="67.8876057%" y1="51.6783388%" x2="87.3990414%" y2="51.2845189%" id="linearGradient-3">
            <stop stop-color="#01ADB5" offset="0%"></stop>
            <stop stop-color="#5483C8" offset="100%"></stop>
        </linearGradient>
        <linearGradient x1="67.8876057%" y1="50.6448095%" x2="87.3990414%" y2="50.4935058%" id="linearGradient-4">
            <stop stop-color="#01ADB5" offset="0%"></stop>
            <stop stop-color="#5483C8" offset="100%"></stop>
        </linearGradient>
    </defs>
    <g id="Page-1" stroke="none" stroke-width="1" fill="none" fill-rule="evenodd">
        <g id="generic-dash" transform="translate(-120.000000, -636.000000)">
            <g id="community" filter="url(#filter-1)" transform="translate(85.000000, 605.697474)">
                <g id="talk-icon" transform="translate(37.317408, 31.624777)">
                    <path d="M36.9629386,9.92009965 L28.6522136,9.92009965 L28.6522136,3.77082017 C28.6522136,1.73639255 27.0544174,0.0812524796 25.0904744,0.0812524796 L3.56173926,0.0812524796 C1.59779623,0.0812524796 0,1.73639255 0,3.77082017 L0,18.5290909 C0,20.5635186 1.59779623,22.2186586 3.56173926,22.2186586 L4.74898568,22.2186586 L4.74898568,25.9082263 C4.74898568,26.8931769 5.81101718,27.472685 6.59475812,26.9315484 L11.8724642,23.2868295 L11.8724642,28.3679381 C11.8724642,30.4023657 13.4702604,32.0575058 15.4342035,32.0575058 L27.105469,32.0575058 L33.9298406,36.7703956 C34.7146896,37.3124341 35.775613,36.7322701 35.775613,35.7470735 L35.775613,32.0575058 L36.9628594,32.0575058 C38.9268024,32.0575058 40.5245987,30.4023657 40.5245987,28.3679381 L40.5245987,13.6096673 C40.5246778,11.5752397 38.9268816,9.92009965 36.9629386,9.92009965 Z M12.3978603,19.9677764 C12.3967522,19.9685963 12.395565,19.9693342 12.3944569,19.9700721 L7.12347852,23.6101996 L7.12347852,20.9888027 C7.12347852,20.3095943 6.59190873,19.7589468 5.9362321,19.7589468 L3.56173926,19.7589468 C2.90709159,19.7589468 2.37449284,19.2072335 2.37449284,18.5290909 L2.37449284,3.77082017 C2.37449284,3.09267763 2.90709159,2.54096427 3.56173926,2.54096427 L25.0904744,2.54096427 C25.745122,2.54096427 26.2777208,3.09267763 26.2777208,3.77082017 L26.2777208,18.5290909 C26.2777208,19.2072335 25.745122,19.7589468 25.0904744,19.7589468 L13.0597106,19.7589468 C12.8299389,19.7589468 12.5924896,19.8325742 12.3978603,19.9677764 Z M38.150185,28.3679381 C38.150185,29.0460806 37.6175862,29.597794 36.9629386,29.597794 L34.5884457,29.597794 C33.9327691,29.597794 33.4011993,30.1484415 33.4011993,30.8276499 L33.4011993,33.4490468 L28.1234932,29.8043278 C27.9284682,29.6696176 27.6993296,29.597794 27.4649672,29.597794 L15.4342035,29.597794 C14.7795558,29.597794 14.246957,29.0460806 14.246957,28.3679381 L14.246957,22.2186586 L25.0904744,22.2186586 C27.0544174,22.2186586 28.6522136,20.5635186 28.6522136,18.5290909 L28.6522136,12.3798114 L36.9629386,12.3798114 C37.6175862,12.3798114 38.150185,12.9315248 38.150185,13.6096673 L38.150185,28.3679381 Z" id="Shape" fill="url(#linearGradient-2)" fill-rule="nonzero"></path>
                    <path d="M15.4342035,12.3798114 L5.9362321,12.3798114 C5.28055548,12.3798114 4.74898568,12.9304589 4.74898568,13.6096673 C4.74898568,14.2888758 5.28055548,14.8395232 5.9362321,14.8395232 L15.4342035,14.8395232 C16.0898801,14.8395232 16.6214499,14.2888758 16.6214499,13.6096673 C16.6214499,12.9304589 16.0898801,12.3798114 15.4342035,12.3798114 Z" id="Path" fill="url(#linearGradient-3)"></path>
                    <path d="M22.7159815,7.46038786 L5.9362321,7.46038786 C5.28055548,7.46038786 4.74898568,8.01103534 4.74898568,8.69024376 C4.74898568,9.36945217 5.28055548,9.92009965 5.9362321,9.92009965 L22.7159815,9.92009965 C23.3716581,9.92009965 23.9032279,9.36945217 23.9032279,8.69024376 C23.9032279,8.01103534 23.3716581,7.46038786 22.7159815,7.46038786 Z" id="Path" fill="url(#linearGradient-4)"></path>
                </g>
            </g>
        </g>
    </g>
</svg>